<svg xmlns="http://www.w3.org/2000/svg" version="1.0" width="2000" height="2000" id="4_21_t2_B6.svg">
<g style="stroke:#000000;stroke-width:2.6;stroke-opacity:0.50;">
</g>
<g style="stroke:#000000;stroke-width:1.3;fill:#ff0000">
<circle cx="424.300" cy="1607.637" r="13.2"/>
<circle cx="630.742" cy="1814.079" r="13.2"/>
<circle cx="348.736" cy="1651.264" r="13.2"/>
<circle cx="706.305" cy="1683.200" r="13.2"/>
<circle cx="348.736" cy="1476.758" r="13.2"/>
<circle cx="424.300" cy="1520.384" r="13.2"/>
<circle cx="467.926" cy="1683.200" r="13.2"/>
<circle cx="912.747" cy="1889.643" r="13.2"/>
<circle cx="912.747" cy="1802.390" r="13.2"/>
<circle cx="761.621" cy="1889.643" r="13.2"/>
<circle cx="674.368" cy="1889.643" r="13.2"/>
<circle cx="837.184" cy="1933.269" r="13.2"/>
<circle cx="273.173" cy="1520.384" r="13.2"/>
<circle cx="479.616" cy="1726.827" r="13.2"/>
<circle cx="273.173" cy="1607.637" r="13.2"/>
<circle cx="392.363" cy="1726.827" r="13.2"/>
<circle cx="555.179" cy="1595.948" r="13.2"/>
<circle cx="761.621" cy="1802.390" r="13.2"/>
<circle cx="674.368" cy="1802.390" r="13.2"/>
<circle cx="837.184" cy="1758.763" r="13.2"/>
<circle cx="988.310" cy="1456.511" r="13.2"/>
<circle cx="781.868" cy="1250.069" r="13.2"/>
<circle cx="825.494" cy="1174.505" r="13.2"/>
<circle cx="1270.316" cy="1532.074" r="13.2"/>
<circle cx="1476.758" cy="1174.505" r="13.2"/>
<circle cx="1270.316" cy="1293.695" r="13.2"/>
<circle cx="1313.942" cy="1456.511" r="13.2"/>
<circle cx="1063.873" cy="1325.632" r="13.2"/>
<circle cx="1389.505" cy="1325.632" r="13.2"/>
<circle cx="1063.873" cy="761.621" r="13.2"/>
<circle cx="901.058" cy="1043.626" r="13.2"/>
<circle cx="1063.873" cy="1087.253" r="13.2"/>
<circle cx="1313.942" cy="892.500" r="13.2"/>
<circle cx="1107.500" cy="686.058" r="13.2"/>
<circle cx="988.310" cy="892.500" r="13.2"/>
<circle cx="1107.500" cy="1011.690" r="13.2"/>
<circle cx="1595.948" cy="968.063" r="13.2"/>
<circle cx="1389.505" cy="761.621" r="13.2"/>
<circle cx="1389.505" cy="1087.253" r="13.2"/>
<circle cx="1552.321" cy="1043.626" r="13.2"/>
<circle cx="1575.700" cy="392.363" r="13.2"/>
<circle cx="1369.258" cy="185.921" r="13.2"/>
<circle cx="1651.264" cy="348.736" r="13.2"/>
<circle cx="1293.695" cy="316.800" r="13.2"/>
<circle cx="1651.264" cy="523.242" r="13.2"/>
<circle cx="1532.074" cy="316.800" r="13.2"/>
<circle cx="1575.700" cy="479.616" r="13.2"/>
<circle cx="1087.253" cy="110.357" r="13.2"/>
<circle cx="1087.253" cy="197.610" r="13.2"/>
<circle cx="1238.379" cy="110.357" r="13.2"/>
<circle cx="1162.816" cy="66.731" r="13.2"/>
<circle cx="1325.632" cy="110.357" r="13.2"/>
<circle cx="1726.827" cy="479.616" r="13.2"/>
<circle cx="1520.384" cy="273.173" r="13.2"/>
<circle cx="1607.637" cy="273.173" r="13.2"/>
<circle cx="1726.827" cy="392.363" r="13.2"/>
<circle cx="1444.821" cy="404.052" r="13.2"/>
<circle cx="1238.379" cy="197.610" r="13.2"/>
<circle cx="1162.816" cy="241.237" r="13.2"/>
<circle cx="1325.632" cy="197.610" r="13.2"/>
<circle cx="1011.690" cy="543.489" r="13.2"/>
<circle cx="1218.132" cy="749.931" r="13.2"/>
<circle cx="1174.505" cy="825.494" r="13.2"/>
<circle cx="729.684" cy="467.926" r="13.2"/>
<circle cx="523.242" cy="825.494" r="13.2"/>
<circle cx="686.058" cy="543.489" r="13.2"/>
<circle cx="729.684" cy="706.305" r="13.2"/>
<circle cx="936.127" cy="674.368" r="13.2"/>
<circle cx="610.495" cy="674.368" r="13.2"/>
<circle cx="936.127" cy="1238.379" r="13.2"/>
<circle cx="936.127" cy="912.747" r="13.2"/>
<circle cx="1098.942" cy="956.374" r="13.2"/>
<circle cx="686.058" cy="1107.500" r="13.2"/>
<circle cx="892.500" cy="1313.942" r="13.2"/>
<circle cx="892.500" cy="988.310" r="13.2"/>
<circle cx="1011.690" cy="1107.500" r="13.2"/>
<circle cx="404.052" cy="1031.937" r="13.2"/>
<circle cx="610.495" cy="1238.379" r="13.2"/>
<circle cx="447.679" cy="956.374" r="13.2"/>
<circle cx="610.495" cy="912.747" r="13.2"/>
<circle cx="499.863" cy="1325.632" r="13.2"/>
<circle cx="261.484" cy="1325.632" r="13.2"/>
<circle cx="912.747" cy="1738.516" r="13.2"/>
<circle cx="912.747" cy="1500.137" r="13.2"/>
<circle cx="348.736" cy="1174.505" r="13.2"/>
<circle cx="825.494" cy="1651.264" r="13.2"/>
<circle cx="499.863" cy="1087.253" r="13.2"/>
<circle cx="674.368" cy="1738.516" r="13.2"/>
<circle cx="185.921" cy="1369.258" r="13.2"/>
<circle cx="392.363" cy="1575.700" r="13.2"/>
<circle cx="749.931" cy="1218.132" r="13.2"/>
<circle cx="543.489" cy="1011.690" r="13.2"/>
<circle cx="261.484" cy="1087.253" r="13.2"/>
<circle cx="674.368" cy="1500.137" r="13.2"/>
<circle cx="1476.758" cy="1476.758" r="13.2"/>
<circle cx="1500.137" cy="674.368" r="13.2"/>
<circle cx="1738.516" cy="674.368" r="13.2"/>
<circle cx="1087.253" cy="261.484" r="13.2"/>
<circle cx="1087.253" cy="499.863" r="13.2"/>
<circle cx="1651.264" cy="825.494" r="13.2"/>
<circle cx="1174.505" cy="348.736" r="13.2"/>
<circle cx="1500.137" cy="912.747" r="13.2"/>
<circle cx="1325.632" cy="261.484" r="13.2"/>
<circle cx="1250.069" cy="781.868" r="13.2"/>
<circle cx="1456.511" cy="988.310" r="13.2"/>
<circle cx="1814.079" cy="630.742" r="13.2"/>
<circle cx="1607.637" cy="424.300" r="13.2"/>
<circle cx="1738.516" cy="912.747" r="13.2"/>
<circle cx="1325.632" cy="499.863" r="13.2"/>
<circle cx="523.242" cy="523.242" r="13.2"/>
<circle cx="781.868" cy="1401.195" r="13.2"/>
<circle cx="825.494" cy="1476.758" r="13.2"/>
<circle cx="499.863" cy="912.747" r="13.2"/>
<circle cx="499.863" cy="1238.379" r="13.2"/>
<circle cx="619.052" cy="1119.189" r="13.2"/>
<circle cx="185.921" cy="1194.753" r="13.2"/>
<circle cx="467.926" cy="1270.316" r="13.2"/>
<circle cx="261.484" cy="912.747" r="13.2"/>
<circle cx="142.294" cy="1119.189" r="13.2"/>
<circle cx="261.484" cy="1238.379" r="13.2"/>
<circle cx="543.489" cy="988.310" r="13.2"/>
<circle cx="543.489" cy="1313.942" r="13.2"/>
<circle cx="706.305" cy="1270.316" r="13.2"/>
<circle cx="1194.753" cy="1814.079" r="13.2"/>
<circle cx="1476.758" cy="1651.264" r="13.2"/>
<circle cx="1325.632" cy="1738.516" r="13.2"/>
<circle cx="1119.189" cy="1857.706" r="13.2"/>
<circle cx="1238.379" cy="1738.516" r="13.2"/>
<circle cx="1401.195" cy="1218.132" r="13.2"/>
<circle cx="1683.200" cy="1293.695" r="13.2"/>
<circle cx="1325.632" cy="1500.137" r="13.2"/>
<circle cx="1119.189" cy="1380.948" r="13.2"/>
<circle cx="1238.379" cy="1500.137" r="13.2"/>
<circle cx="1607.637" cy="1575.700" r="13.2"/>
<circle cx="1520.384" cy="1575.700" r="13.2"/>
<circle cx="1683.200" cy="1532.074" r="13.2"/>
<circle cx="1218.132" cy="598.805" r="13.2"/>
<circle cx="1174.505" cy="523.242" r="13.2"/>
<circle cx="1500.137" cy="1087.253" r="13.2"/>
<circle cx="1380.948" cy="880.810" r="13.2"/>
<circle cx="1500.137" cy="761.621" r="13.2"/>
<circle cx="1814.079" cy="805.247" r="13.2"/>
<circle cx="1532.074" cy="729.684" r="13.2"/>
<circle cx="1738.516" cy="1087.253" r="13.2"/>
<circle cx="1738.516" cy="761.621" r="13.2"/>
<circle cx="1857.706" cy="880.810" r="13.2"/>
<circle cx="1456.511" cy="1011.690" r="13.2"/>
<circle cx="1293.695" cy="729.684" r="13.2"/>
<circle cx="1456.511" cy="686.058" r="13.2"/>
<circle cx="805.247" cy="185.921" r="13.2"/>
<circle cx="523.242" cy="348.736" r="13.2"/>
<circle cx="674.368" cy="261.484" r="13.2"/>
<circle cx="761.621" cy="261.484" r="13.2"/>
<circle cx="880.810" cy="142.294" r="13.2"/>
<circle cx="598.805" cy="781.868" r="13.2"/>
<circle cx="316.800" cy="706.305" r="13.2"/>
<circle cx="674.368" cy="499.863" r="13.2"/>
<circle cx="761.621" cy="499.863" r="13.2"/>
<circle cx="880.810" cy="619.052" r="13.2"/>
<circle cx="392.363" cy="424.300" r="13.2"/>
<circle cx="316.800" cy="467.926" r="13.2"/>
<circle cx="479.616" cy="424.300" r="13.2"/>
<circle cx="1063.873" cy="1238.379" r="13.2"/>
<circle cx="1238.379" cy="1889.643" r="13.2"/>
<circle cx="1031.937" cy="1595.948" r="13.2"/>
<circle cx="1238.379" cy="1802.390" r="13.2"/>
<circle cx="1595.948" cy="1444.821" r="13.2"/>
<circle cx="1389.505" cy="1238.379" r="13.2"/>
<circle cx="1107.500" cy="1313.942" r="13.2"/>
<circle cx="1520.384" cy="1726.827" r="13.2"/>
<circle cx="936.127" cy="761.621" r="13.2"/>
<circle cx="761.621" cy="110.357" r="13.2"/>
<circle cx="404.052" cy="555.179" r="13.2"/>
<circle cx="610.495" cy="761.621" r="13.2"/>
<circle cx="968.063" cy="404.052" r="13.2"/>
<circle cx="761.621" cy="197.610" r="13.2"/>
<circle cx="479.616" cy="273.173" r="13.2"/>
<circle cx="892.500" cy="686.058" r="13.2"/>
<circle cx="781.868" cy="598.805" r="13.2"/>
<circle cx="1063.873" cy="674.368" r="13.2"/>
<circle cx="499.863" cy="674.368" r="13.2"/>
<circle cx="499.863" cy="761.621" r="13.2"/>
<circle cx="619.052" cy="880.810" r="13.2"/>
<circle cx="781.868" cy="749.931" r="13.2"/>
<circle cx="901.058" cy="956.374" r="13.2"/>
<circle cx="1063.873" cy="912.747" r="13.2"/>
<circle cx="805.247" cy="1814.079" r="13.2"/>
<circle cx="1087.253" cy="1889.643" r="13.2"/>
<circle cx="1087.253" cy="1738.516" r="13.2"/>
<circle cx="761.621" cy="1738.516" r="13.2"/>
<circle cx="880.810" cy="1857.706" r="13.2"/>
<circle cx="1369.258" cy="1814.079" r="13.2"/>
<circle cx="1162.816" cy="1933.269" r="13.2"/>
<circle cx="1325.632" cy="1889.643" r="13.2"/>
<circle cx="1218.132" cy="1401.195" r="13.2"/>
<circle cx="936.127" cy="1325.632" r="13.2"/>
<circle cx="1500.137" cy="1325.632" r="13.2"/>
<circle cx="1380.948" cy="1119.189" r="13.2"/>
<circle cx="1500.137" cy="1238.379" r="13.2"/>
<circle cx="1218.132" cy="1250.069" r="13.2"/>
<circle cx="936.127" cy="1087.253" r="13.2"/>
<circle cx="1098.942" cy="1043.626" r="13.2"/>
<circle cx="1194.753" cy="185.921" r="13.2"/>
<circle cx="912.747" cy="110.357" r="13.2"/>
<circle cx="912.747" cy="261.484" r="13.2"/>
<circle cx="1119.189" cy="142.294" r="13.2"/>
<circle cx="1238.379" cy="261.484" r="13.2"/>
<circle cx="630.742" cy="185.921" r="13.2"/>
<circle cx="674.368" cy="110.357" r="13.2"/>
<circle cx="837.184" cy="66.731" r="13.2"/>
<circle cx="197.610" cy="1238.379" r="13.2"/>
<circle cx="110.357" cy="1238.379" r="13.2"/>
<circle cx="404.052" cy="1444.821" r="13.2"/>
<circle cx="197.610" cy="1087.253" r="13.2"/>
<circle cx="197.610" cy="1325.632" r="13.2"/>
<circle cx="241.237" cy="1162.816" r="13.2"/>
<circle cx="523.242" cy="1651.264" r="13.2"/>
<circle cx="110.357" cy="1087.253" r="13.2"/>
<circle cx="66.731" cy="1162.816" r="13.2"/>
<circle cx="110.357" cy="1325.632" r="13.2"/>
<circle cx="316.800" cy="1293.695" r="13.2"/>
<circle cx="316.800" cy="1532.074" r="13.2"/>
<circle cx="479.616" cy="1575.700" r="13.2"/>
<circle cx="761.621" cy="1389.505" r="13.2"/>
<circle cx="761.621" cy="1063.873" r="13.2"/>
<circle cx="968.063" cy="1595.948" r="13.2"/>
<circle cx="1325.632" cy="1389.505" r="13.2"/>
<circle cx="1043.626" cy="1552.321" r="13.2"/>
<circle cx="1087.253" cy="1389.505" r="13.2"/>
<circle cx="1174.505" cy="1476.758" r="13.2"/>
<circle cx="1325.632" cy="1063.873" r="13.2"/>
<circle cx="1043.626" cy="901.058" r="13.2"/>
<circle cx="1087.253" cy="1063.873" r="13.2"/>
<circle cx="1532.074" cy="1270.316" r="13.2"/>
<circle cx="1293.695" cy="1270.316" r="13.2"/>
<circle cx="1456.511" cy="1313.942" r="13.2"/>
<circle cx="1802.390" cy="761.621" r="13.2"/>
<circle cx="1889.643" cy="761.621" r="13.2"/>
<circle cx="1595.948" cy="555.179" r="13.2"/>
<circle cx="1802.390" cy="912.747" r="13.2"/>
<circle cx="1758.763" cy="837.184" r="13.2"/>
<circle cx="1802.390" cy="674.368" r="13.2"/>
<circle cx="1476.758" cy="348.736" r="13.2"/>
<circle cx="1889.643" cy="912.747" r="13.2"/>
<circle cx="1889.643" cy="674.368" r="13.2"/>
<circle cx="1933.269" cy="837.184" r="13.2"/>
<circle cx="1683.200" cy="706.305" r="13.2"/>
<circle cx="1520.384" cy="424.300" r="13.2"/>
<circle cx="1683.200" cy="467.926" r="13.2"/>
<circle cx="1238.379" cy="610.495" r="13.2"/>
<circle cx="1238.379" cy="936.127" r="13.2"/>
<circle cx="1031.937" cy="404.052" r="13.2"/>
<circle cx="674.368" cy="610.495" r="13.2"/>
<circle cx="912.747" cy="610.495" r="13.2"/>
<circle cx="956.374" cy="447.679" r="13.2"/>
<circle cx="825.494" cy="523.242" r="13.2"/>
<circle cx="674.368" cy="936.127" r="13.2"/>
<circle cx="912.747" cy="936.127" r="13.2"/>
<circle cx="956.374" cy="1098.942" r="13.2"/>
<circle cx="467.926" cy="729.684" r="13.2"/>
<circle cx="543.489" cy="686.058" r="13.2"/>
<circle cx="706.305" cy="729.684" r="13.2"/>
<circle cx="197.610" cy="912.747" r="13.2"/>
<circle cx="674.368" cy="1389.505" r="13.2"/>
<circle cx="348.736" cy="825.494" r="13.2"/>
<circle cx="523.242" cy="1476.758" r="13.2"/>
<circle cx="110.357" cy="912.747" r="13.2"/>
<circle cx="674.368" cy="1063.873" r="13.2"/>
<circle cx="1174.505" cy="1651.264" r="13.2"/>
<circle cx="1802.390" cy="1087.253" r="13.2"/>
<circle cx="1325.632" cy="610.495" r="13.2"/>
<circle cx="1651.264" cy="1174.505" r="13.2"/>
<circle cx="1476.758" cy="523.242" r="13.2"/>
<circle cx="1325.632" cy="936.127" r="13.2"/>
<circle cx="1889.643" cy="1087.253" r="13.2"/>
<circle cx="825.494" cy="348.736" r="13.2"/>
<circle cx="610.495" cy="1325.632" r="13.2"/>
<circle cx="197.610" cy="761.621" r="13.2"/>
<circle cx="404.052" cy="968.063" r="13.2"/>
<circle cx="197.610" cy="674.368" r="13.2"/>
<circle cx="241.237" cy="837.184" r="13.2"/>
<circle cx="447.679" cy="1043.626" r="13.2"/>
<circle cx="610.495" cy="1087.253" r="13.2"/>
<circle cx="1087.253" cy="1802.390" r="13.2"/>
<circle cx="1238.379" cy="1389.505" r="13.2"/>
<circle cx="1444.821" cy="1595.948" r="13.2"/>
<circle cx="912.747" cy="1389.505" r="13.2"/>
<circle cx="956.374" cy="1552.321" r="13.2"/>
<circle cx="1162.816" cy="1758.763" r="13.2"/>
<circle cx="1325.632" cy="1802.390" r="13.2"/>
<circle cx="1389.505" cy="674.368" r="13.2"/>
<circle cx="1802.390" cy="1238.379" r="13.2"/>
<circle cx="1595.948" cy="1031.937" r="13.2"/>
<circle cx="1758.763" cy="1162.816" r="13.2"/>
<circle cx="1802.390" cy="1325.632" r="13.2"/>
<circle cx="1389.505" cy="912.747" r="13.2"/>
<circle cx="1552.321" cy="956.374" r="13.2"/>
<circle cx="912.747" cy="197.610" r="13.2"/>
<circle cx="761.621" cy="610.495" r="13.2"/>
<circle cx="555.179" cy="404.052" r="13.2"/>
<circle cx="1043.626" cy="447.679" r="13.2"/>
<circle cx="1087.253" cy="610.495" r="13.2"/>
<circle cx="674.368" cy="197.610" r="13.2"/>
<circle cx="837.184" cy="241.237" r="13.2"/>
<circle cx="729.684" cy="1532.074" r="13.2"/>
<circle cx="1293.695" cy="1683.200" r="13.2"/>
<circle cx="706.305" cy="316.800" r="13.2"/>
<circle cx="1270.316" cy="467.926" r="13.2"/>
<circle cx="185.921" cy="805.247" r="13.2"/>
<circle cx="110.357" cy="761.621" r="13.2"/>
<circle cx="261.484" cy="674.368" r="13.2"/>
<circle cx="142.294" cy="880.810" r="13.2"/>
<circle cx="261.484" cy="761.621" r="13.2"/>
<circle cx="185.921" cy="630.742" r="13.2"/>
<circle cx="66.731" cy="837.184" r="13.2"/>
<circle cx="110.357" cy="674.368" r="13.2"/>
<circle cx="598.805" cy="1218.132" r="13.2"/>
<circle cx="761.621" cy="936.127" r="13.2"/>
<circle cx="1087.253" cy="1500.137" r="13.2"/>
<circle cx="761.621" cy="1500.137" r="13.2"/>
<circle cx="880.810" cy="1380.948" r="13.2"/>
<circle cx="1250.069" cy="1218.132" r="13.2"/>
<circle cx="1043.626" cy="1098.942" r="13.2"/>
<circle cx="1087.253" cy="936.127" r="13.2"/>
<circle cx="1814.079" cy="1194.753" r="13.2"/>
<circle cx="1889.643" cy="1238.379" r="13.2"/>
<circle cx="1738.516" cy="1325.632" r="13.2"/>
<circle cx="1738.516" cy="1238.379" r="13.2"/>
<circle cx="1857.706" cy="1119.189" r="13.2"/>
<circle cx="1814.079" cy="1369.258" r="13.2"/>
<circle cx="1889.643" cy="1325.632" r="13.2"/>
<circle cx="1933.269" cy="1162.816" r="13.2"/>
<circle cx="1401.195" cy="781.868" r="13.2"/>
<circle cx="1238.379" cy="1063.873" r="13.2"/>
<circle cx="912.747" cy="499.863" r="13.2"/>
<circle cx="1119.189" cy="619.052" r="13.2"/>
<circle cx="1238.379" cy="499.863" r="13.2"/>
<circle cx="749.931" cy="781.868" r="13.2"/>
<circle cx="912.747" cy="1063.873" r="13.2"/>
<circle cx="956.374" cy="901.058" r="13.2"/>
<circle cx="348.736" cy="523.242" r="13.2"/>
<circle cx="523.242" cy="1174.505" r="13.2"/>
<circle cx="273.173" cy="479.616" r="13.2"/>
<circle cx="686.058" cy="892.500" r="13.2"/>
<circle cx="1651.264" cy="1476.758" r="13.2"/>
<circle cx="1476.758" cy="825.494" r="13.2"/>
<circle cx="1313.942" cy="1107.500" r="13.2"/>
<circle cx="1726.827" cy="1520.384" r="13.2"/>
<circle cx="424.300" cy="392.363" r="13.2"/>
<circle cx="424.300" cy="479.616" r="13.2"/>
<circle cx="467.926" cy="316.800" r="13.2"/>
<circle cx="1011.690" cy="1456.511" r="13.2"/>
<circle cx="686.058" cy="1456.511" r="13.2"/>
<circle cx="729.684" cy="1293.695" r="13.2"/>
<circle cx="1575.700" cy="1607.637" r="13.2"/>
<circle cx="1532.074" cy="1683.200" r="13.2"/>
<circle cx="1575.700" cy="1520.384" r="13.2"/>
<circle cx="988.310" cy="543.489" r="13.2"/>
<circle cx="1270.316" cy="706.305" r="13.2"/>
<circle cx="1313.942" cy="543.489" r="13.2"/>
<circle cx="348.736" cy="348.736" r="13.2"/>
<circle cx="273.173" cy="392.363" r="13.2"/>
<circle cx="392.363" cy="273.173" r="13.2"/>
<circle cx="825.494" cy="825.494" r="13.2"/>
<circle cx="988.310" cy="1107.500" r="13.2"/>
<circle cx="1107.500" cy="988.310" r="13.2"/>
<circle cx="1651.264" cy="1651.264" r="13.2"/>
<circle cx="1607.637" cy="1726.827" r="13.2"/>
<circle cx="1726.827" cy="1607.637" r="13.2"/>
<circle cx="1174.505" cy="1174.505" r="13.2"/>
<circle cx="892.500" cy="1011.690" r="13.2"/>
<circle cx="1011.690" cy="892.500" r="13.2"/>
</g>
<g style="stroke:#000000;stroke-width:1.3;fill:#ff7f00">
<circle cx="749.931" cy="1694.890" r="13.2"/>
<circle cx="543.489" cy="1488.448" r="13.2"/>
<circle cx="587.115" cy="1651.264" r="13.2"/>
<circle cx="305.110" cy="1401.195" r="13.2"/>
<circle cx="348.736" cy="1564.011" r="13.2"/>
<circle cx="587.115" cy="1476.758" r="13.2"/>
<circle cx="630.742" cy="1639.574" r="13.2"/>
<circle cx="1031.937" cy="1770.453" r="13.2"/>
<circle cx="825.494" cy="1564.011" r="13.2"/>
<circle cx="869.121" cy="1726.827" r="13.2"/>
<circle cx="555.179" cy="1770.453" r="13.2"/>
<circle cx="717.995" cy="1814.079" r="13.2"/>
<circle cx="837.184" cy="1846.016" r="13.2"/>
<circle cx="1000.000" cy="1889.643" r="13.2"/>
<circle cx="229.547" cy="1444.821" r="13.2"/>
<circle cx="435.989" cy="1651.264" r="13.2"/>
<circle cx="598.805" cy="1433.132" r="13.2"/>
<circle cx="805.247" cy="1639.574" r="13.2"/>
<circle cx="316.800" cy="1357.568" r="13.2"/>
<circle cx="435.989" cy="1476.758" r="13.2"/>
<circle cx="523.242" cy="1564.011" r="13.2"/>
<circle cx="793.558" cy="1595.948" r="13.2"/>
<circle cx="1000.000" cy="1802.390" r="13.2"/>
<circle cx="642.431" cy="1683.200" r="13.2"/>
<circle cx="185.921" cy="1282.005" r="13.2"/>
<circle cx="598.805" cy="1694.890" r="13.2"/>
<circle cx="749.931" cy="1433.132" r="13.2"/>
<circle cx="1162.816" cy="1846.016" r="13.2"/>
<circle cx="662.679" cy="1369.258" r="13.2"/>
<circle cx="869.121" cy="1575.700" r="13.2"/>
<circle cx="825.494" cy="1412.885" r="13.2"/>
<circle cx="944.684" cy="1444.821" r="13.2"/>
<circle cx="1151.126" cy="1174.505" r="13.2"/>
<circle cx="1194.753" cy="1337.321" r="13.2"/>
<circle cx="1433.132" cy="1250.069" r="13.2"/>
<circle cx="1476.758" cy="1412.885" r="13.2"/>
<circle cx="1151.126" cy="1651.264" r="13.2"/>
<circle cx="1107.500" cy="1488.448" r="13.2"/>
<circle cx="781.868" cy="924.437" r="13.2"/>
<circle cx="944.684" cy="968.063" r="13.2"/>
<circle cx="1063.873" cy="1000.000" r="13.2"/>
<circle cx="1226.689" cy="1043.626" r="13.2"/>
<circle cx="1639.574" cy="805.247" r="13.2"/>
<circle cx="1433.132" cy="598.805" r="13.2"/>
<circle cx="825.494" cy="848.874" r="13.2"/>
<circle cx="1031.937" cy="1055.316" r="13.2"/>
<circle cx="1357.568" cy="729.684" r="13.2"/>
<circle cx="1476.758" cy="848.874" r="13.2"/>
<circle cx="1389.505" cy="1000.000" r="13.2"/>
<circle cx="1595.948" cy="1206.442" r="13.2"/>
<circle cx="1151.126" cy="523.242" r="13.2"/>
<circle cx="1270.316" cy="642.431" r="13.2"/>
<circle cx="662.679" cy="805.247" r="13.2"/>
<circle cx="1075.563" cy="1218.132" r="13.2"/>
<circle cx="1226.689" cy="956.374" r="13.2"/>
<circle cx="1639.574" cy="1369.258" r="13.2"/>
<circle cx="1250.069" cy="305.110" r="13.2"/>
<circle cx="1456.511" cy="511.552" r="13.2"/>
<circle cx="1412.885" cy="348.736" r="13.2"/>
<circle cx="1369.258" cy="360.426" r="13.2"/>
<circle cx="1412.885" cy="523.242" r="13.2"/>
<circle cx="1651.264" cy="435.989" r="13.2"/>
<circle cx="1694.890" cy="598.805" r="13.2"/>
<circle cx="968.063" cy="229.547" r="13.2"/>
<circle cx="1174.505" cy="435.989" r="13.2"/>
<circle cx="1130.879" cy="273.173" r="13.2"/>
<circle cx="1000.000" cy="110.357" r="13.2"/>
<circle cx="1162.816" cy="153.984" r="13.2"/>
<circle cx="1282.005" cy="185.921" r="13.2"/>
<circle cx="1444.821" cy="229.547" r="13.2"/>
<circle cx="1564.011" cy="348.736" r="13.2"/>
<circle cx="1770.453" cy="555.179" r="13.2"/>
<circle cx="1401.195" cy="566.868" r="13.2"/>
<circle cx="1194.753" cy="360.426" r="13.2"/>
<circle cx="1683.200" cy="642.431" r="13.2"/>
<circle cx="1564.011" cy="523.242" r="13.2"/>
<circle cx="1476.758" cy="435.989" r="13.2"/>
<circle cx="1000.000" cy="197.610" r="13.2"/>
<circle cx="1206.442" cy="404.052" r="13.2"/>
<circle cx="1357.568" cy="316.800" r="13.2"/>
<circle cx="837.184" cy="153.984" r="13.2"/>
<circle cx="1250.069" cy="566.868" r="13.2"/>
<circle cx="1401.195" cy="305.110" r="13.2"/>
<circle cx="1814.079" cy="717.995" r="13.2"/>
<circle cx="1337.321" cy="630.742" r="13.2"/>
<circle cx="1130.879" cy="424.300" r="13.2"/>
<circle cx="1174.505" cy="587.115" r="13.2"/>
<circle cx="1055.316" cy="555.179" r="13.2"/>
<circle cx="523.242" cy="587.115" r="13.2"/>
<circle cx="566.868" cy="749.931" r="13.2"/>
<circle cx="805.247" cy="662.679" r="13.2"/>
<circle cx="848.874" cy="825.494" r="13.2"/>
<circle cx="848.874" cy="348.736" r="13.2"/>
<circle cx="892.500" cy="511.552" r="13.2"/>
<circle cx="773.311" cy="956.374" r="13.2"/>
<circle cx="936.127" cy="1000.000" r="13.2"/>
<circle cx="1055.316" cy="1031.937" r="13.2"/>
<circle cx="1218.132" cy="1075.563" r="13.2"/>
<circle cx="360.426" cy="1194.753" r="13.2"/>
<circle cx="566.868" cy="1401.195" r="13.2"/>
<circle cx="968.063" cy="944.684" r="13.2"/>
<circle cx="1174.505" cy="1151.126" r="13.2"/>
<circle cx="642.431" cy="1270.316" r="13.2"/>
<circle cx="523.242" cy="1151.126" r="13.2"/>
<circle cx="404.052" cy="793.558" r="13.2"/>
<circle cx="610.495" cy="1000.000" r="13.2"/>
<circle cx="848.874" cy="1476.758" r="13.2"/>
<circle cx="729.684" cy="1357.568" r="13.2"/>
<circle cx="360.426" cy="630.742" r="13.2"/>
<circle cx="773.311" cy="1043.626" r="13.2"/>
<circle cx="924.437" cy="781.868" r="13.2"/>
<circle cx="1337.321" cy="1194.753" r="13.2"/>
<circle cx="305.110" cy="1250.069" r="13.2"/>
<circle cx="348.736" cy="1412.885" r="13.2"/>
<circle cx="511.552" cy="1456.511" r="13.2"/>
<circle cx="424.300" cy="1130.879" r="13.2"/>
<circle cx="587.115" cy="1174.505" r="13.2"/>
<circle cx="630.742" cy="1337.321" r="13.2"/>
<circle cx="1151.126" cy="1476.758" r="13.2"/>
<circle cx="1194.753" cy="1639.574" r="13.2"/>
<circle cx="1357.568" cy="1683.200" r="13.2"/>
<circle cx="1270.316" cy="1357.568" r="13.2"/>
<circle cx="1433.132" cy="1401.195" r="13.2"/>
<circle cx="1476.758" cy="1564.011" r="13.2"/>
<circle cx="1357.568" cy="1270.316" r="13.2"/>
<circle cx="1401.195" cy="1433.132" r="13.2"/>
<circle cx="1564.011" cy="1476.758" r="13.2"/>
<circle cx="1476.758" cy="1151.126" r="13.2"/>
<circle cx="1639.574" cy="1194.753" r="13.2"/>
<circle cx="1683.200" cy="1357.568" r="13.2"/>
<circle cx="1369.258" cy="662.679" r="13.2"/>
<circle cx="1412.885" cy="825.494" r="13.2"/>
<circle cx="1575.700" cy="869.121" r="13.2"/>
<circle cx="1488.448" cy="543.489" r="13.2"/>
<circle cx="1651.264" cy="587.115" r="13.2"/>
<circle cx="1694.890" cy="749.931" r="13.2"/>
<circle cx="523.242" cy="435.989" r="13.2"/>
<circle cx="566.868" cy="598.805" r="13.2"/>
<circle cx="729.684" cy="642.431" r="13.2"/>
<circle cx="642.431" cy="316.800" r="13.2"/>
<circle cx="805.247" cy="360.426" r="13.2"/>
<circle cx="848.874" cy="523.242" r="13.2"/>
<circle cx="316.800" cy="642.431" r="13.2"/>
<circle cx="360.426" cy="805.247" r="13.2"/>
<circle cx="523.242" cy="848.874" r="13.2"/>
<circle cx="435.989" cy="523.242" r="13.2"/>
<circle cx="598.805" cy="566.868" r="13.2"/>
<circle cx="642.431" cy="729.684" r="13.2"/>
<circle cx="380.673" cy="1119.189" r="13.2"/>
<circle cx="662.679" cy="1194.753" r="13.2"/>
<circle cx="499.863" cy="1000.000" r="13.2"/>
<circle cx="781.868" cy="1075.563" r="13.2"/>
<circle cx="511.552" cy="1107.500" r="13.2"/>
<circle cx="229.547" cy="1031.937" r="13.2"/>
<circle cx="348.736" cy="1151.126" r="13.2"/>
<circle cx="261.484" cy="1000.000" r="13.2"/>
<circle cx="587.115" cy="825.494" r="13.2"/>
<circle cx="305.110" cy="749.931" r="13.2"/>
<circle cx="825.494" cy="1151.126" r="13.2"/>
<circle cx="424.300" cy="869.121" r="13.2"/>
<circle cx="380.673" cy="880.810" r="13.2"/>
<circle cx="944.684" cy="1031.937" r="13.2"/>
<circle cx="1000.000" cy="1738.516" r="13.2"/>
<circle cx="1282.005" cy="1814.079" r="13.2"/>
<circle cx="1119.189" cy="1619.327" r="13.2"/>
<circle cx="1401.195" cy="1694.890" r="13.2"/>
<circle cx="1726.827" cy="1130.879" r="13.2"/>
<circle cx="1444.821" cy="1055.316" r="13.2"/>
<circle cx="1564.011" cy="1174.505" r="13.2"/>
<circle cx="1000.000" cy="1500.137" r="13.2"/>
<circle cx="1651.264" cy="1412.885" r="13.2"/>
<circle cx="1564.011" cy="1651.264" r="13.2"/>
<circle cx="1369.258" cy="1337.321" r="13.2"/>
<circle cx="1488.448" cy="1456.511" r="13.2"/>
<circle cx="880.810" cy="1619.327" r="13.2"/>
<circle cx="1444.821" cy="1770.453" r="13.2"/>
<circle cx="1218.132" cy="924.437" r="13.2"/>
<circle cx="1500.137" cy="1000.000" r="13.2"/>
<circle cx="1337.321" cy="805.247" r="13.2"/>
<circle cx="1619.327" cy="880.810" r="13.2"/>
<circle cx="1488.448" cy="892.500" r="13.2"/>
<circle cx="1770.453" cy="968.063" r="13.2"/>
<circle cx="1651.264" cy="848.874" r="13.2"/>
<circle cx="1412.885" cy="1174.505" r="13.2"/>
<circle cx="1738.516" cy="1000.000" r="13.2"/>
<circle cx="1694.890" cy="1250.069" r="13.2"/>
<circle cx="1174.505" cy="848.874" r="13.2"/>
<circle cx="1575.700" cy="1130.879" r="13.2"/>
<circle cx="1055.316" cy="968.063" r="13.2"/>
<circle cx="1619.327" cy="1119.189" r="13.2"/>
<circle cx="598.805" cy="305.110" r="13.2"/>
<circle cx="880.810" cy="380.673" r="13.2"/>
<circle cx="717.995" cy="185.921" r="13.2"/>
<circle cx="1000.000" cy="261.484" r="13.2"/>
<circle cx="273.173" cy="869.121" r="13.2"/>
<circle cx="555.179" cy="944.684" r="13.2"/>
<circle cx="435.989" cy="825.494" r="13.2"/>
<circle cx="348.736" cy="587.115" r="13.2"/>
<circle cx="1000.000" cy="499.863" r="13.2"/>
<circle cx="435.989" cy="348.736" r="13.2"/>
<circle cx="630.742" cy="662.679" r="13.2"/>
<circle cx="511.552" cy="543.489" r="13.2"/>
<circle cx="555.179" cy="229.547" r="13.2"/>
<circle cx="1119.189" cy="380.673" r="13.2"/>
<circle cx="229.547" cy="968.063" r="13.2"/>
<circle cx="273.173" cy="1130.879" r="13.2"/>
<circle cx="435.989" cy="1174.505" r="13.2"/>
<circle cx="348.736" cy="848.874" r="13.2"/>
<circle cx="511.552" cy="892.500" r="13.2"/>
<circle cx="555.179" cy="1055.316" r="13.2"/>
<circle cx="1444.821" cy="944.684" r="13.2"/>
<circle cx="1488.448" cy="1107.500" r="13.2"/>
<circle cx="1651.264" cy="1151.126" r="13.2"/>
<circle cx="1564.011" cy="825.494" r="13.2"/>
<circle cx="1726.827" cy="869.121" r="13.2"/>
<circle cx="1770.453" cy="1031.937" r="13.2"/>
<circle cx="1107.500" cy="511.552" r="13.2"/>
<circle cx="825.494" cy="435.989" r="13.2"/>
<circle cx="944.684" cy="555.179" r="13.2"/>
<circle cx="825.494" cy="587.115" r="13.2"/>
<circle cx="543.489" cy="511.552" r="13.2"/>
<circle cx="662.679" cy="630.742" r="13.2"/>
<circle cx="1130.879" cy="1726.827" r="13.2"/>
<circle cx="848.874" cy="1651.264" r="13.2"/>
<circle cx="968.063" cy="1770.453" r="13.2"/>
<circle cx="1412.885" cy="1651.264" r="13.2"/>
<circle cx="1130.879" cy="1575.700" r="13.2"/>
<circle cx="1250.069" cy="1694.890" r="13.2"/>
<circle cx="892.500" cy="1488.448" r="13.2"/>
<circle cx="1174.505" cy="1564.011" r="13.2"/>
<circle cx="1055.316" cy="1444.821" r="13.2"/>
<circle cx="1174.505" cy="1412.885" r="13.2"/>
<circle cx="1456.511" cy="1488.448" r="13.2"/>
<circle cx="1337.321" cy="1369.258" r="13.2"/>
<circle cx="869.121" cy="273.173" r="13.2"/>
<circle cx="1151.126" cy="348.736" r="13.2"/>
<circle cx="1031.937" cy="229.547" r="13.2"/>
<circle cx="587.115" cy="348.736" r="13.2"/>
<circle cx="869.121" cy="424.300" r="13.2"/>
<circle cx="749.931" cy="305.110" r="13.2"/>
<circle cx="153.984" cy="1162.816" r="13.2"/>
<circle cx="360.426" cy="1369.258" r="13.2"/>
<circle cx="197.610" cy="1000.000" r="13.2"/>
<circle cx="404.052" cy="1206.442" r="13.2"/>
<circle cx="110.357" cy="1000.000" r="13.2"/>
<circle cx="523.242" cy="1412.885" r="13.2"/>
<circle cx="153.984" cy="837.184" r="13.2"/>
<circle cx="566.868" cy="1250.069" r="13.2"/>
<circle cx="1000.000" cy="1389.505" r="13.2"/>
<circle cx="1206.442" cy="1595.948" r="13.2"/>
<circle cx="1043.626" cy="1226.689" r="13.2"/>
<circle cx="1250.069" cy="1433.132" r="13.2"/>
<circle cx="1000.000" cy="1063.873" r="13.2"/>
<circle cx="1412.885" cy="1476.758" r="13.2"/>
<circle cx="956.374" cy="1226.689" r="13.2"/>
<circle cx="1369.258" cy="1639.574" r="13.2"/>
<circle cx="1595.948" cy="793.558" r="13.2"/>
<circle cx="1802.390" cy="1000.000" r="13.2"/>
<circle cx="1639.574" cy="630.742" r="13.2"/>
<circle cx="1846.016" cy="837.184" r="13.2"/>
<circle cx="1889.643" cy="1000.000" r="13.2"/>
<circle cx="1476.758" cy="587.115" r="13.2"/>
<circle cx="1433.132" cy="749.931" r="13.2"/>
<circle cx="1846.016" cy="1162.816" r="13.2"/>
<circle cx="749.931" cy="566.868" r="13.2"/>
<circle cx="956.374" cy="773.311" r="13.2"/>
<circle cx="793.558" cy="404.052" r="13.2"/>
<circle cx="1000.000" cy="610.495" r="13.2"/>
<circle cx="1000.000" cy="936.127" r="13.2"/>
<circle cx="587.115" cy="523.242" r="13.2"/>
<circle cx="630.742" cy="360.426" r="13.2"/>
<circle cx="1043.626" cy="773.311" r="13.2"/>
<circle cx="185.921" cy="717.995" r="13.2"/>
<circle cx="305.110" cy="598.805" r="13.2"/>
<circle cx="229.547" cy="555.179" r="13.2"/>
<circle cx="348.736" cy="435.989" r="13.2"/>
<circle cx="805.247" cy="1337.321" r="13.2"/>
<circle cx="924.437" cy="1218.132" r="13.2"/>
<circle cx="968.063" cy="1055.316" r="13.2"/>
<circle cx="848.874" cy="1174.505" r="13.2"/>
<circle cx="1694.890" cy="1401.195" r="13.2"/>
<circle cx="1814.079" cy="1282.005" r="13.2"/>
<circle cx="1770.453" cy="1444.821" r="13.2"/>
<circle cx="1651.264" cy="1564.011" r="13.2"/>
<circle cx="1075.563" cy="781.868" r="13.2"/>
<circle cx="1194.753" cy="662.679" r="13.2"/>
<circle cx="1031.937" cy="944.684" r="13.2"/>
<circle cx="1151.126" cy="825.494" r="13.2"/>
</g>
<g style="stroke:#000000;stroke-width:1.3;fill:#ffff00">
<circle cx="467.926" cy="1532.074" r="13.2"/>
<circle cx="1031.937" cy="1683.200" r="13.2"/>
<circle cx="543.489" cy="1401.195" r="13.2"/>
<circle cx="630.742" cy="1726.827" r="13.2"/>
<circle cx="956.374" cy="1814.079" r="13.2"/>
<circle cx="316.800" cy="1444.821" r="13.2"/>
<circle cx="555.179" cy="1683.200" r="13.2"/>
<circle cx="880.810" cy="1595.948" r="13.2"/>
<circle cx="392.363" cy="1313.942" r="13.2"/>
<circle cx="805.247" cy="1726.827" r="13.2"/>
<circle cx="706.305" cy="1293.695" r="13.2"/>
<circle cx="1270.316" cy="1444.821" r="13.2"/>
<circle cx="781.868" cy="1162.816" r="13.2"/>
<circle cx="1107.500" cy="1250.069" r="13.2"/>
<circle cx="1194.753" cy="1575.700" r="13.2"/>
<circle cx="1595.948" cy="880.810" r="13.2"/>
<circle cx="1270.316" cy="968.063" r="13.2"/>
<circle cx="1031.937" cy="729.684" r="13.2"/>
<circle cx="1520.384" cy="1011.690" r="13.2"/>
<circle cx="1107.500" cy="598.805" r="13.2"/>
<circle cx="1532.074" cy="467.926" r="13.2"/>
<circle cx="968.063" cy="316.800" r="13.2"/>
<circle cx="1456.511" cy="598.805" r="13.2"/>
<circle cx="1369.258" cy="273.173" r="13.2"/>
<circle cx="1043.626" cy="185.921" r="13.2"/>
<circle cx="1683.200" cy="555.179" r="13.2"/>
<circle cx="1444.821" cy="316.800" r="13.2"/>
<circle cx="1119.189" cy="404.052" r="13.2"/>
<circle cx="1607.637" cy="686.058" r="13.2"/>
<circle cx="1194.753" cy="273.173" r="13.2"/>
<circle cx="1293.695" cy="706.305" r="13.2"/>
<circle cx="729.684" cy="555.179" r="13.2"/>
<circle cx="1218.132" cy="837.184" r="13.2"/>
<circle cx="892.500" cy="749.931" r="13.2"/>
<circle cx="805.247" cy="424.300" r="13.2"/>
<circle cx="404.052" cy="1119.189" r="13.2"/>
<circle cx="729.684" cy="1031.937" r="13.2"/>
<circle cx="968.063" cy="1270.316" r="13.2"/>
<circle cx="479.616" cy="988.310" r="13.2"/>
<circle cx="892.500" cy="1401.195" r="13.2"/>
<circle cx="424.300" cy="1369.258" r="13.2"/>
<circle cx="749.931" cy="1456.511" r="13.2"/>
<circle cx="543.489" cy="1250.069" r="13.2"/>
<circle cx="630.742" cy="1575.700" r="13.2"/>
<circle cx="467.926" cy="1293.695" r="13.2"/>
<circle cx="706.305" cy="1532.074" r="13.2"/>
<circle cx="988.310" cy="1520.384" r="13.2"/>
<circle cx="1313.942" cy="1607.637" r="13.2"/>
<circle cx="1107.500" cy="1401.195" r="13.2"/>
<circle cx="1194.753" cy="1726.827" r="13.2"/>
<circle cx="1313.942" cy="1520.384" r="13.2"/>
<circle cx="1444.821" cy="1270.316" r="13.2"/>
<circle cx="1683.200" cy="1031.937" r="13.2"/>
<circle cx="1726.827" cy="1194.753" r="13.2"/>
<circle cx="1401.195" cy="1107.500" r="13.2"/>
<circle cx="1607.637" cy="1313.942" r="13.2"/>
<circle cx="1520.384" cy="988.310" r="13.2"/>
<circle cx="1520.384" cy="1313.942" r="13.2"/>
<circle cx="1031.937" cy="1270.316" r="13.2"/>
<circle cx="1119.189" cy="1595.948" r="13.2"/>
<circle cx="1444.821" cy="1683.200" r="13.2"/>
<circle cx="1270.316" cy="1031.937" r="13.2"/>
<circle cx="1595.948" cy="1119.189" r="13.2"/>
<circle cx="1683.200" cy="1444.821" r="13.2"/>
<circle cx="1575.700" cy="630.742" r="13.2"/>
<circle cx="1250.069" cy="543.489" r="13.2"/>
<circle cx="1456.511" cy="749.931" r="13.2"/>
<circle cx="1369.258" cy="424.300" r="13.2"/>
<circle cx="1532.074" cy="706.305" r="13.2"/>
<circle cx="1293.695" cy="467.926" r="13.2"/>
<circle cx="1011.690" cy="479.616" r="13.2"/>
<circle cx="686.058" cy="392.363" r="13.2"/>
<circle cx="892.500" cy="598.805" r="13.2"/>
<circle cx="805.247" cy="273.173" r="13.2"/>
<circle cx="686.058" cy="479.616" r="13.2"/>
<circle cx="316.800" cy="968.063" r="13.2"/>
<circle cx="555.179" cy="729.684" r="13.2"/>
<circle cx="273.173" cy="805.247" r="13.2"/>
<circle cx="598.805" cy="892.500" r="13.2"/>
<circle cx="392.363" cy="686.058" r="13.2"/>
<circle cx="479.616" cy="1011.690" r="13.2"/>
<circle cx="479.616" cy="686.058" r="13.2"/>
<circle cx="316.800" cy="555.179" r="13.2"/>
<circle cx="404.052" cy="880.810" r="13.2"/>
<circle cx="729.684" cy="968.063" r="13.2"/>
<circle cx="555.179" cy="316.800" r="13.2"/>
<circle cx="880.810" cy="404.052" r="13.2"/>
<circle cx="968.063" cy="729.684" r="13.2"/>
<circle cx="543.489" cy="749.931" r="13.2"/>
<circle cx="185.921" cy="956.374" r="13.2"/>
<circle cx="424.300" cy="1194.753" r="13.2"/>
<circle cx="749.931" cy="1107.500" r="13.2"/>
<circle cx="1369.258" cy="1575.700" r="13.2"/>
<circle cx="1401.195" cy="1456.511" r="13.2"/>
<circle cx="1162.816" cy="1218.132" r="13.2"/>
<circle cx="1726.827" cy="1369.258" r="13.2"/>
<circle cx="1456.511" cy="1250.069" r="13.2"/>
<circle cx="1250.069" cy="892.500" r="13.2"/>
<circle cx="1814.079" cy="1043.626" r="13.2"/>
<circle cx="1575.700" cy="805.247" r="13.2"/>
<circle cx="630.742" cy="424.300" r="13.2"/>
<circle cx="273.173" cy="630.742" r="13.2"/>
<circle cx="598.805" cy="543.489" r="13.2"/>
<circle cx="837.184" cy="781.868" r="13.2"/>
<circle cx="392.363" cy="1011.690" r="13.2"/>
<circle cx="185.921" cy="1043.626" r="13.2"/>
<circle cx="273.173" cy="1369.258" r="13.2"/>
<circle cx="598.805" cy="1456.511" r="13.2"/>
<circle cx="424.300" cy="805.247" r="13.2"/>
<circle cx="749.931" cy="892.500" r="13.2"/>
<circle cx="837.184" cy="1218.132" r="13.2"/>
<circle cx="988.310" cy="1607.637" r="13.2"/>
<circle cx="1607.637" cy="988.310" r="13.2"/>
<circle cx="1162.816" cy="781.868" r="13.2"/>
<circle cx="1250.069" cy="1107.500" r="13.2"/>
<circle cx="1575.700" cy="1194.753" r="13.2"/>
<circle cx="1401.195" cy="543.489" r="13.2"/>
<circle cx="1726.827" cy="630.742" r="13.2"/>
<circle cx="1814.079" cy="956.374" r="13.2"/>
<circle cx="1011.690" cy="392.363" r="13.2"/>
<circle cx="543.489" cy="598.805" r="13.2"/>
<circle cx="781.868" cy="837.184" r="13.2"/>
<circle cx="1107.500" cy="749.931" r="13.2"/>
<circle cx="805.247" cy="1575.700" r="13.2"/>
<circle cx="1043.626" cy="1814.079" r="13.2"/>
<circle cx="1369.258" cy="1726.827" r="13.2"/>
<circle cx="892.500" cy="1250.069" r="13.2"/>
<circle cx="1218.132" cy="1162.816" r="13.2"/>
<circle cx="1456.511" cy="1401.195" r="13.2"/>
<circle cx="630.742" cy="273.173" r="13.2"/>
<circle cx="956.374" cy="185.921" r="13.2"/>
<circle cx="1194.753" cy="424.300" r="13.2"/>
<circle cx="273.173" cy="1194.753" r="13.2"/>
<circle cx="686.058" cy="1607.637" r="13.2"/>
<circle cx="598.805" cy="1107.500" r="13.2"/>
<circle cx="1011.690" cy="1520.384" r="13.2"/>
<circle cx="1726.827" cy="805.247" r="13.2"/>
<circle cx="1313.942" cy="392.363" r="13.2"/>
<circle cx="1401.195" cy="892.500" r="13.2"/>
<circle cx="988.310" cy="479.616" r="13.2"/>
<circle cx="316.800" cy="1031.937" r="13.2"/>
<circle cx="555.179" cy="1270.316" r="13.2"/>
<circle cx="392.363" cy="988.310" r="13.2"/>
<circle cx="479.616" cy="1313.942" r="13.2"/>
<circle cx="729.684" cy="1444.821" r="13.2"/>
<circle cx="968.063" cy="1683.200" r="13.2"/>
<circle cx="1011.690" cy="1607.637" r="13.2"/>
<circle cx="1250.069" cy="1456.511" r="13.2"/>
<circle cx="1575.700" cy="1369.258" r="13.2"/>
<circle cx="1532.074" cy="1532.074" r="13.2"/>
<circle cx="1293.695" cy="1293.695" r="13.2"/>
<circle cx="1293.695" cy="1532.074" r="13.2"/>
<circle cx="1683.200" cy="968.063" r="13.2"/>
<circle cx="1444.821" cy="729.684" r="13.2"/>
<circle cx="1607.637" cy="1011.690" r="13.2"/>
<circle cx="1520.384" cy="686.058" r="13.2"/>
<circle cx="1270.316" cy="555.179" r="13.2"/>
<circle cx="1031.937" cy="316.800" r="13.2"/>
<circle cx="988.310" cy="392.363" r="13.2"/>
<circle cx="424.300" cy="630.742" r="13.2"/>
<circle cx="749.931" cy="543.489" r="13.2"/>
<circle cx="467.926" cy="467.926" r="13.2"/>
<circle cx="706.305" cy="706.305" r="13.2"/>
<circle cx="706.305" cy="467.926" r="13.2"/>
<circle cx="467.926" cy="706.305" r="13.2"/>
<circle cx="686.058" cy="1520.384" r="13.2"/>
<circle cx="1532.074" cy="1293.695" r="13.2"/>
<circle cx="1313.942" cy="479.616" r="13.2"/>
</g>
<g style="stroke:#000000;stroke-width:1.3;fill:#00ff00">
<circle cx="706.305" cy="1770.453" r="13.2"/>
<circle cx="467.926" cy="1770.453" r="13.2"/>
<circle cx="749.931" cy="1846.016" r="13.2"/>
<circle cx="479.616" cy="1639.574" r="13.2"/>
<circle cx="392.363" cy="1639.574" r="13.2"/>
<circle cx="598.805" cy="1846.016" r="13.2"/>
<circle cx="944.684" cy="1532.074" r="13.2"/>
<circle cx="944.684" cy="1293.695" r="13.2"/>
<circle cx="1226.689" cy="1369.258" r="13.2"/>
<circle cx="1433.132" cy="686.058" r="13.2"/>
<circle cx="1433.132" cy="1011.690" r="13.2"/>
<circle cx="1226.689" cy="805.247" r="13.2"/>
<circle cx="1293.695" cy="229.547" r="13.2"/>
<circle cx="1532.074" cy="229.547" r="13.2"/>
<circle cx="1250.069" cy="153.984" r="13.2"/>
<circle cx="1520.384" cy="360.426" r="13.2"/>
<circle cx="1607.637" cy="360.426" r="13.2"/>
<circle cx="1401.195" cy="153.984" r="13.2"/>
<circle cx="1055.316" cy="467.926" r="13.2"/>
<circle cx="1055.316" cy="706.305" r="13.2"/>
<circle cx="773.311" cy="630.742" r="13.2"/>
<circle cx="566.868" cy="1313.942" r="13.2"/>
<circle cx="566.868" cy="988.310" r="13.2"/>
<circle cx="773.311" cy="1194.753" r="13.2"/>
<circle cx="662.679" cy="1607.637" r="13.2"/>
<circle cx="380.673" cy="1444.821" r="13.2"/>
<circle cx="988.310" cy="1694.890" r="13.2"/>
<circle cx="1031.937" cy="1619.327" r="13.2"/>
<circle cx="781.868" cy="1488.448" r="13.2"/>
<circle cx="869.121" cy="1814.079" r="13.2"/>
<circle cx="619.052" cy="1206.442" r="13.2"/>
<circle cx="793.558" cy="1857.706" r="13.2"/>
<circle cx="229.547" cy="1293.695" r="13.2"/>
<circle cx="229.547" cy="1532.074" r="13.2"/>
<circle cx="467.926" cy="1055.316" r="13.2"/>
<circle cx="706.305" cy="1055.316" r="13.2"/>
<circle cx="185.921" cy="1130.879" r="13.2"/>
<circle cx="142.294" cy="1206.442" r="13.2"/>
<circle cx="511.552" cy="1218.132" r="13.2"/>
<circle cx="793.558" cy="1380.948" r="13.2"/>
<circle cx="305.110" cy="1011.690" r="13.2"/>
<circle cx="392.363" cy="1337.321" r="13.2"/>
<circle cx="380.673" cy="968.063" r="13.2"/>
<circle cx="555.179" cy="1619.327" r="13.2"/>
<circle cx="1337.321" cy="392.363" r="13.2"/>
<circle cx="1619.327" cy="555.179" r="13.2"/>
<circle cx="1011.690" cy="305.110" r="13.2"/>
<circle cx="968.063" cy="380.673" r="13.2"/>
<circle cx="1218.132" cy="511.552" r="13.2"/>
<circle cx="1130.879" cy="185.921" r="13.2"/>
<circle cx="1380.948" cy="793.558" r="13.2"/>
<circle cx="1206.442" cy="142.294" r="13.2"/>
<circle cx="1532.074" cy="944.684" r="13.2"/>
<circle cx="1293.695" cy="944.684" r="13.2"/>
<circle cx="1770.453" cy="706.305" r="13.2"/>
<circle cx="1770.453" cy="467.926" r="13.2"/>
<circle cx="1814.079" cy="869.121" r="13.2"/>
<circle cx="1857.706" cy="793.558" r="13.2"/>
<circle cx="1488.448" cy="781.868" r="13.2"/>
<circle cx="1206.442" cy="619.052" r="13.2"/>
<circle cx="1694.890" cy="988.310" r="13.2"/>
<circle cx="1607.637" cy="662.679" r="13.2"/>
<circle cx="1619.327" cy="1031.937" r="13.2"/>
<circle cx="1444.821" cy="380.673" r="13.2"/>
<circle cx="662.679" cy="1520.384" r="13.2"/>
<circle cx="305.110" cy="988.310" r="13.2"/>
<circle cx="305.110" cy="1313.942" r="13.2"/>
<circle cx="380.673" cy="1031.937" r="13.2"/>
<circle cx="1313.942" cy="1694.890" r="13.2"/>
<circle cx="1607.637" cy="1337.321" r="13.2"/>
<circle cx="1520.384" cy="1337.321" r="13.2"/>
<circle cx="1444.821" cy="1619.327" r="13.2"/>
<circle cx="1337.321" cy="479.616" r="13.2"/>
<circle cx="1694.890" cy="1011.690" r="13.2"/>
<circle cx="1694.890" cy="686.058" r="13.2"/>
<circle cx="1619.327" cy="968.063" r="13.2"/>
<circle cx="686.058" cy="305.110" r="13.2"/>
<circle cx="392.363" cy="662.679" r="13.2"/>
<circle cx="479.616" cy="662.679" r="13.2"/>
<circle cx="555.179" cy="380.673" r="13.2"/>
<circle cx="901.058" cy="1282.005" r="13.2"/>
<circle cx="1075.563" cy="1933.269" r="13.2"/>
<circle cx="1357.568" cy="1595.948" r="13.2"/>
<circle cx="1075.563" cy="1758.763" r="13.2"/>
<circle cx="1595.948" cy="1357.568" r="13.2"/>
<circle cx="1552.321" cy="1282.005" r="13.2"/>
<circle cx="1313.942" cy="1433.132" r="13.2"/>
<circle cx="1639.574" cy="1520.384" r="13.2"/>
<circle cx="1520.384" cy="1639.574" r="13.2"/>
<circle cx="1433.132" cy="1313.942" r="13.2"/>
<circle cx="988.310" cy="1433.132" r="13.2"/>
<circle cx="1639.574" cy="1607.637" r="13.2"/>
<circle cx="1401.195" cy="1846.016" r="13.2"/>
<circle cx="1226.689" cy="1194.753" r="13.2"/>
<circle cx="1098.942" cy="717.995" r="13.2"/>
<circle cx="924.437" cy="66.731" r="13.2"/>
<circle cx="404.052" cy="642.431" r="13.2"/>
<circle cx="447.679" cy="717.995" r="13.2"/>
<circle cx="642.431" cy="404.052" r="13.2"/>
<circle cx="924.437" cy="241.237" r="13.2"/>
<circle cx="360.426" cy="479.616" r="13.2"/>
<circle cx="686.058" cy="566.868" r="13.2"/>
<circle cx="479.616" cy="360.426" r="13.2"/>
<circle cx="566.868" cy="686.058" r="13.2"/>
<circle cx="360.426" cy="392.363" r="13.2"/>
<circle cx="1011.690" cy="566.868" r="13.2"/>
<circle cx="598.805" cy="153.984" r="13.2"/>
<circle cx="773.311" cy="805.247" r="13.2"/>
<circle cx="781.868" cy="511.552" r="13.2"/>
<circle cx="901.058" cy="717.995" r="13.2"/>
<circle cx="619.052" cy="793.558" r="13.2"/>
<circle cx="1130.879" cy="1814.079" r="13.2"/>
<circle cx="924.437" cy="1933.269" r="13.2"/>
<circle cx="1206.442" cy="1857.706" r="13.2"/>
<circle cx="1218.132" cy="1488.448" r="13.2"/>
<circle cx="1098.942" cy="1282.005" r="13.2"/>
<circle cx="1380.948" cy="1206.442" r="13.2"/>
<circle cx="869.121" cy="185.921" r="13.2"/>
<circle cx="1075.563" cy="66.731" r="13.2"/>
<circle cx="793.558" cy="142.294" r="13.2"/>
<circle cx="360.426" cy="1520.384" r="13.2"/>
<circle cx="153.984" cy="1401.195" r="13.2"/>
<circle cx="360.426" cy="1607.637" r="13.2"/>
<circle cx="153.984" cy="1250.069" r="13.2"/>
<circle cx="686.058" cy="1433.132" r="13.2"/>
<circle cx="805.247" cy="1226.689" r="13.2"/>
<circle cx="1011.690" cy="1433.132" r="13.2"/>
<circle cx="1369.258" cy="1226.689" r="13.2"/>
<circle cx="1639.574" cy="479.616" r="13.2"/>
<circle cx="1846.016" cy="598.805" r="13.2"/>
<circle cx="1639.574" cy="392.363" r="13.2"/>
<circle cx="1846.016" cy="749.931" r="13.2"/>
<circle cx="1313.942" cy="566.868" r="13.2"/>
<circle cx="1194.753" cy="773.311" r="13.2"/>
<circle cx="988.310" cy="566.868" r="13.2"/>
<circle cx="630.742" cy="773.311" r="13.2"/>
<circle cx="404.052" cy="1357.568" r="13.2"/>
<circle cx="241.237" cy="1075.563" r="13.2"/>
<circle cx="642.431" cy="1595.948" r="13.2"/>
<circle cx="717.995" cy="1552.321" r="13.2"/>
<circle cx="185.921" cy="869.121" r="13.2"/>
<circle cx="66.731" cy="1075.563" r="13.2"/>
<circle cx="511.552" cy="781.868" r="13.2"/>
<circle cx="717.995" cy="901.058" r="13.2"/>
<circle cx="229.547" cy="706.305" r="13.2"/>
<circle cx="153.984" cy="749.931" r="13.2"/>
<circle cx="467.926" cy="944.684" r="13.2"/>
<circle cx="630.742" cy="1226.689" r="13.2"/>
<circle cx="1595.948" cy="642.431" r="13.2"/>
<circle cx="1758.763" cy="924.437" r="13.2"/>
<circle cx="1357.568" cy="404.052" r="13.2"/>
<circle cx="1282.005" cy="447.679" r="13.2"/>
<circle cx="1488.448" cy="1218.132" r="13.2"/>
<circle cx="1282.005" cy="1098.942" r="13.2"/>
<circle cx="1814.079" cy="1130.879" r="13.2"/>
<circle cx="1933.269" cy="924.437" r="13.2"/>
<circle cx="1770.453" cy="1293.695" r="13.2"/>
<circle cx="1846.016" cy="1250.069" r="13.2"/>
<circle cx="1532.074" cy="1055.316" r="13.2"/>
<circle cx="1369.258" cy="773.311" r="13.2"/>
<circle cx="447.679" cy="1282.005" r="13.2"/>
<circle cx="241.237" cy="924.437" r="13.2"/>
<circle cx="924.437" cy="1758.763" r="13.2"/>
<circle cx="1282.005" cy="1552.321" r="13.2"/>
<circle cx="1552.321" cy="717.995" r="13.2"/>
<circle cx="1758.763" cy="1075.563" r="13.2"/>
<circle cx="1075.563" cy="241.237" r="13.2"/>
<circle cx="717.995" cy="447.679" r="13.2"/>
<circle cx="1011.690" cy="1694.890" r="13.2"/>
<circle cx="686.058" cy="1694.890" r="13.2"/>
<circle cx="1337.321" cy="1607.637" r="13.2"/>
<circle cx="1337.321" cy="1520.384" r="13.2"/>
<circle cx="1055.316" cy="1532.074" r="13.2"/>
<circle cx="1293.695" cy="1770.453" r="13.2"/>
<circle cx="773.311" cy="1369.258" r="13.2"/>
<circle cx="1250.069" cy="1846.016" r="13.2"/>
<circle cx="662.679" cy="392.363" r="13.2"/>
<circle cx="662.679" cy="479.616" r="13.2"/>
<circle cx="988.310" cy="305.110" r="13.2"/>
<circle cx="1313.942" cy="305.110" r="13.2"/>
<circle cx="706.305" cy="229.547" r="13.2"/>
<circle cx="944.684" cy="467.926" r="13.2"/>
<circle cx="749.931" cy="153.984" r="13.2"/>
<circle cx="1226.689" cy="630.742" r="13.2"/>
<circle cx="66.731" cy="924.437" r="13.2"/>
<circle cx="142.294" cy="793.558" r="13.2"/>
<circle cx="717.995" cy="1098.942" r="13.2"/>
<circle cx="1206.442" cy="1380.948" r="13.2"/>
<circle cx="1933.269" cy="1075.563" r="13.2"/>
<circle cx="1857.706" cy="1206.442" r="13.2"/>
<circle cx="1282.005" cy="901.058" r="13.2"/>
<circle cx="793.558" cy="619.052" r="13.2"/>
<circle cx="305.110" cy="686.058" r="13.2"/>
<circle cx="479.616" cy="1337.321" r="13.2"/>
<circle cx="153.984" cy="598.805" r="13.2"/>
<circle cx="805.247" cy="773.311" r="13.2"/>
<circle cx="392.363" cy="360.426" r="13.2"/>
<circle cx="566.868" cy="1011.690" r="13.2"/>
<circle cx="1694.890" cy="1313.942" r="13.2"/>
<circle cx="1520.384" cy="662.679" r="13.2"/>
<circle cx="1194.753" cy="1226.689" r="13.2"/>
<circle cx="1846.016" cy="1401.195" r="13.2"/>
<circle cx="1607.637" cy="1639.574" r="13.2"/>
<circle cx="1433.132" cy="988.310" r="13.2"/>
<circle cx="380.673" cy="555.179" r="13.2"/>
<circle cx="968.063" cy="1619.327" r="13.2"/>
<circle cx="1619.327" cy="1444.821" r="13.2"/>
<circle cx="1031.937" cy="380.673" r="13.2"/>
<circle cx="229.547" cy="467.926" r="13.2"/>
<circle cx="706.305" cy="944.684" r="13.2"/>
<circle cx="1770.453" cy="1532.074" r="13.2"/>
<circle cx="1293.695" cy="1055.316" r="13.2"/>
<circle cx="467.926" cy="229.547" r="13.2"/>
<circle cx="944.684" cy="706.305" r="13.2"/>
<circle cx="1055.316" cy="1293.695" r="13.2"/>
<circle cx="1532.074" cy="1770.453" r="13.2"/>
</g>
<g style="stroke:#000000;stroke-width:1.3;fill:#00ffff">
<circle cx="305.110" cy="1488.448" r="13.2"/>
<circle cx="511.552" cy="1694.890" r="13.2"/>
<circle cx="869.121" cy="1488.448" r="13.2"/>
<circle cx="869.121" cy="1639.574" r="13.2"/>
<circle cx="1075.563" cy="1846.016" r="13.2"/>
<circle cx="642.431" cy="1357.568" r="13.2"/>
<circle cx="229.547" cy="1357.568" r="13.2"/>
<circle cx="511.552" cy="1433.132" r="13.2"/>
<circle cx="642.431" cy="1770.453" r="13.2"/>
<circle cx="924.437" cy="1846.016" r="13.2"/>
<circle cx="662.679" cy="1130.879" r="13.2"/>
<circle cx="869.121" cy="1337.321" r="13.2"/>
<circle cx="1226.689" cy="1282.005" r="13.2"/>
<circle cx="1433.132" cy="1488.448" r="13.2"/>
<circle cx="1357.568" cy="642.431" r="13.2"/>
<circle cx="1357.568" cy="1055.316" r="13.2"/>
<circle cx="1639.574" cy="1130.879" r="13.2"/>
<circle cx="944.684" cy="642.431" r="13.2"/>
<circle cx="1226.689" cy="717.995" r="13.2"/>
<circle cx="1488.448" cy="305.110" r="13.2"/>
<circle cx="1694.890" cy="511.552" r="13.2"/>
<circle cx="1130.879" cy="511.552" r="13.2"/>
<circle cx="924.437" cy="153.984" r="13.2"/>
<circle cx="1130.879" cy="360.426" r="13.2"/>
<circle cx="1488.448" cy="566.868" r="13.2"/>
<circle cx="1770.453" cy="642.431" r="13.2"/>
<circle cx="1075.563" cy="153.984" r="13.2"/>
<circle cx="1357.568" cy="229.547" r="13.2"/>
<circle cx="1130.879" cy="662.679" r="13.2"/>
<circle cx="1337.321" cy="869.121" r="13.2"/>
<circle cx="566.868" cy="511.552" r="13.2"/>
<circle cx="773.311" cy="717.995" r="13.2"/>
<circle cx="360.426" cy="869.121" r="13.2"/>
<circle cx="642.431" cy="944.684" r="13.2"/>
<circle cx="773.311" cy="1282.005" r="13.2"/>
<circle cx="1055.316" cy="1357.568" r="13.2"/>
<circle cx="380.673" cy="1206.442" r="13.2"/>
<circle cx="793.558" cy="1619.327" r="13.2"/>
<circle cx="1357.568" cy="1357.568" r="13.2"/>
<circle cx="1619.327" cy="793.558" r="13.2"/>
<circle cx="1206.442" cy="380.673" r="13.2"/>
<circle cx="642.431" cy="642.431" r="13.2"/>
<circle cx="944.684" cy="1357.568" r="13.2"/>
<circle cx="511.552" cy="869.121" r="13.2"/>
<circle cx="380.673" cy="793.558" r="13.2"/>
<circle cx="662.679" cy="869.121" r="13.2"/>
<circle cx="1357.568" cy="1770.453" r="13.2"/>
<circle cx="1488.448" cy="1130.879" r="13.2"/>
<circle cx="1206.442" cy="1619.327" r="13.2"/>
<circle cx="1488.448" cy="1694.890" r="13.2"/>
<circle cx="1055.316" cy="642.431" r="13.2"/>
<circle cx="1337.321" cy="1130.879" r="13.2"/>
<circle cx="1619.327" cy="1206.442" r="13.2"/>
<circle cx="642.431" cy="229.547" r="13.2"/>
<circle cx="511.552" cy="305.110" r="13.2"/>
<circle cx="793.558" cy="380.673" r="13.2"/>
<circle cx="511.552" cy="1130.879" r="13.2"/>
<circle cx="1488.448" cy="869.121" r="13.2"/>
<circle cx="869.121" cy="511.552" r="13.2"/>
<circle cx="1130.879" cy="1488.448" r="13.2"/>
<circle cx="153.984" cy="1075.563" r="13.2"/>
<circle cx="566.868" cy="1488.448" r="13.2"/>
<circle cx="153.984" cy="924.437" r="13.2"/>
<circle cx="360.426" cy="1130.879" r="13.2"/>
<circle cx="717.995" cy="1226.689" r="13.2"/>
<circle cx="1130.879" cy="1639.574" r="13.2"/>
<circle cx="1282.005" cy="1226.689" r="13.2"/>
<circle cx="1488.448" cy="1433.132" r="13.2"/>
<circle cx="1846.016" cy="924.437" r="13.2"/>
<circle cx="1433.132" cy="511.552" r="13.2"/>
<circle cx="1639.574" cy="869.121" r="13.2"/>
<circle cx="1846.016" cy="1075.563" r="13.2"/>
<circle cx="1282.005" cy="773.311" r="13.2"/>
<circle cx="869.121" cy="360.426" r="13.2"/>
<circle cx="511.552" cy="566.868" r="13.2"/>
<circle cx="717.995" cy="773.311" r="13.2"/>
<circle cx="229.547" cy="642.431" r="13.2"/>
<circle cx="305.110" cy="511.552" r="13.2"/>
<circle cx="642.431" cy="1055.316" r="13.2"/>
<circle cx="1130.879" cy="1337.321" r="13.2"/>
<circle cx="1770.453" cy="1357.568" r="13.2"/>
<circle cx="1694.890" cy="1488.448" r="13.2"/>
<circle cx="1357.568" cy="944.684" r="13.2"/>
<circle cx="869.121" cy="662.679" r="13.2"/>
</g>
<g style="stroke:#000000;stroke-width:1.3;fill:#0000ff">
<circle cx="749.931" cy="1520.384" r="13.2"/>
<circle cx="956.374" cy="1726.827" r="13.2"/>
<circle cx="912.747" cy="1476.758" r="13.2"/>
<circle cx="1119.189" cy="1683.200" r="13.2"/>
<circle cx="467.926" cy="1444.821" r="13.2"/>
<circle cx="912.747" cy="1651.264" r="13.2"/>
<circle cx="674.368" cy="1651.264" r="13.2"/>
<circle cx="348.736" cy="1325.632" r="13.2"/>
<circle cx="555.179" cy="1532.074" r="13.2"/>
<circle cx="706.305" cy="1444.821" r="13.2"/>
<circle cx="749.931" cy="1607.637" r="13.2"/>
<circle cx="598.805" cy="1607.637" r="13.2"/>
<circle cx="392.363" cy="1401.195" r="13.2"/>
<circle cx="761.621" cy="1476.758" r="13.2"/>
<circle cx="880.810" cy="1683.200" r="13.2"/>
<circle cx="761.621" cy="1651.264" r="13.2"/>
<circle cx="1043.626" cy="1726.827" r="13.2"/>
<circle cx="479.616" cy="1401.195" r="13.2"/>
<circle cx="674.368" cy="1476.758" r="13.2"/>
<circle cx="348.736" cy="1238.379" r="13.2"/>
<circle cx="630.742" cy="1313.942" r="13.2"/>
<circle cx="598.805" cy="1520.384" r="13.2"/>
<circle cx="1313.942" cy="1369.258" r="13.2"/>
<circle cx="1107.500" cy="1162.816" r="13.2"/>
<circle cx="1270.316" cy="1119.189" r="13.2"/>
<circle cx="1476.758" cy="1325.632" r="13.2"/>
<circle cx="825.494" cy="1325.632" r="13.2"/>
<circle cx="1031.937" cy="1293.695" r="13.2"/>
<circle cx="825.494" cy="1087.253" r="13.2"/>
<circle cx="706.305" cy="968.063" r="13.2"/>
<circle cx="912.747" cy="1174.505" r="13.2"/>
<circle cx="1031.937" cy="1532.074" r="13.2"/>
<circle cx="988.310" cy="1369.258" r="13.2"/>
<circle cx="1476.758" cy="761.621" r="13.2"/>
<circle cx="988.310" cy="805.247" r="13.2"/>
<circle cx="1194.753" cy="1011.690" r="13.2"/>
<circle cx="1270.316" cy="880.810" r="13.2"/>
<circle cx="825.494" cy="761.621" r="13.2"/>
<circle cx="1107.500" cy="837.184" r="13.2"/>
<circle cx="1476.758" cy="1087.253" r="13.2"/>
<circle cx="1194.753" cy="686.058" r="13.2"/>
<circle cx="1238.379" cy="1174.505" r="13.2"/>
<circle cx="1520.384" cy="1250.069" r="13.2"/>
<circle cx="1313.942" cy="805.247" r="13.2"/>
<circle cx="1250.069" cy="479.616" r="13.2"/>
<circle cx="1043.626" cy="273.173" r="13.2"/>
<circle cx="880.810" cy="316.800" r="13.2"/>
<circle cx="1087.253" cy="523.242" r="13.2"/>
<circle cx="1532.074" cy="555.179" r="13.2"/>
<circle cx="1087.253" cy="348.736" r="13.2"/>
<circle cx="1325.632" cy="348.736" r="13.2"/>
<circle cx="1444.821" cy="467.926" r="13.2"/>
<circle cx="1651.264" cy="674.368" r="13.2"/>
<circle cx="1293.695" cy="555.179" r="13.2"/>
<circle cx="1250.069" cy="392.363" r="13.2"/>
<circle cx="1401.195" cy="392.363" r="13.2"/>
<circle cx="1607.637" cy="598.805" r="13.2"/>
<circle cx="1238.379" cy="523.242" r="13.2"/>
<circle cx="1119.189" cy="316.800" r="13.2"/>
<circle cx="956.374" cy="273.173" r="13.2"/>
<circle cx="1238.379" cy="348.736" r="13.2"/>
<circle cx="1520.384" cy="598.805" r="13.2"/>
<circle cx="1325.632" cy="523.242" r="13.2"/>
<circle cx="1369.258" cy="686.058" r="13.2"/>
<circle cx="1651.264" cy="761.621" r="13.2"/>
<circle cx="1401.195" cy="479.616" r="13.2"/>
<circle cx="686.058" cy="630.742" r="13.2"/>
<circle cx="892.500" cy="837.184" r="13.2"/>
<circle cx="523.242" cy="674.368" r="13.2"/>
<circle cx="729.684" cy="880.810" r="13.2"/>
<circle cx="1174.505" cy="674.368" r="13.2"/>
<circle cx="968.063" cy="706.305" r="13.2"/>
<circle cx="1174.505" cy="912.747" r="13.2"/>
<circle cx="1087.253" cy="825.494" r="13.2"/>
<circle cx="1293.695" cy="1031.937" r="13.2"/>
<circle cx="968.063" cy="467.926" r="13.2"/>
<circle cx="1011.690" cy="630.742" r="13.2"/>
<circle cx="523.242" cy="1238.379" r="13.2"/>
<circle cx="1011.690" cy="1194.753" r="13.2"/>
<circle cx="805.247" cy="988.310" r="13.2"/>
<circle cx="729.684" cy="1119.189" r="13.2"/>
<circle cx="892.500" cy="1162.816" r="13.2"/>
<circle cx="1174.505" cy="1238.379" r="13.2"/>
<circle cx="523.242" cy="912.747" r="13.2"/>
<circle cx="805.247" cy="1313.942" r="13.2"/>
<circle cx="479.616" cy="749.931" r="13.2"/>
<circle cx="761.621" cy="825.494" r="13.2"/>
<circle cx="686.058" cy="1194.753" r="13.2"/>
<circle cx="825.494" cy="1238.379" r="13.2"/>
<circle cx="988.310" cy="1194.753" r="13.2"/>
<circle cx="1238.379" cy="1651.264" r="13.2"/>
<circle cx="1401.195" cy="1607.637" r="13.2"/>
<circle cx="1162.816" cy="1107.500" r="13.2"/>
<circle cx="1369.258" cy="1313.942" r="13.2"/>
<circle cx="1119.189" cy="1270.316" r="13.2"/>
<circle cx="1325.632" cy="1476.758" r="13.2"/>
<circle cx="1726.827" cy="956.374" r="13.2"/>
<circle cx="1520.384" cy="749.931" r="13.2"/>
<circle cx="1476.758" cy="912.747" r="13.2"/>
<circle cx="1683.200" cy="1119.189" r="13.2"/>
<circle cx="1651.264" cy="1238.379" r="13.2"/>
<circle cx="1607.637" cy="1401.195" r="13.2"/>
<circle cx="1238.379" cy="825.494" r="13.2"/>
<circle cx="1194.753" cy="988.310" r="13.2"/>
<circle cx="1194.753" cy="1313.942" r="13.2"/>
<circle cx="1238.379" cy="1476.758" r="13.2"/>
<circle cx="1313.942" cy="1194.753" r="13.2"/>
<circle cx="1401.195" cy="1520.384" r="13.2"/>
<circle cx="1476.758" cy="1238.379" r="13.2"/>
<circle cx="1520.384" cy="1401.195" r="13.2"/>
<circle cx="1174.505" cy="761.621" r="13.2"/>
<circle cx="1011.690" cy="805.247" r="13.2"/>
<circle cx="761.621" cy="348.736" r="13.2"/>
<circle cx="598.805" cy="392.363" r="13.2"/>
<circle cx="273.173" cy="1043.626" r="13.2"/>
<circle cx="479.616" cy="1250.069" r="13.2"/>
<circle cx="316.800" cy="880.810" r="13.2"/>
<circle cx="523.242" cy="1087.253" r="13.2"/>
<circle cx="837.184" cy="892.500" r="13.2"/>
<circle cx="630.742" cy="686.058" r="13.2"/>
<circle cx="674.368" cy="523.242" r="13.2"/>
<circle cx="880.810" cy="729.684" r="13.2"/>
<circle cx="348.736" cy="761.621" r="13.2"/>
<circle cx="392.363" cy="598.805" r="13.2"/>
<circle cx="761.621" cy="1174.505" r="13.2"/>
<circle cx="805.247" cy="1011.690" r="13.2"/>
<circle cx="479.616" cy="598.805" r="13.2"/>
<circle cx="523.242" cy="761.621" r="13.2"/>
<circle cx="598.805" cy="479.616" r="13.2"/>
<circle cx="686.058" cy="805.247" r="13.2"/>
<circle cx="761.621" cy="523.242" r="13.2"/>
<circle cx="805.247" cy="686.058" r="13.2"/>
<circle cx="543.489" cy="1162.816" r="13.2"/>
<circle cx="424.300" cy="1043.626" r="13.2"/>
<circle cx="424.300" cy="956.374" r="13.2"/>
<circle cx="706.305" cy="1031.937" r="13.2"/>
<circle cx="543.489" cy="837.184" r="13.2"/>
<circle cx="825.494" cy="912.747" r="13.2"/>
<circle cx="630.742" cy="988.310" r="13.2"/>
<circle cx="348.736" cy="912.747" r="13.2"/>
<circle cx="467.926" cy="1031.937" r="13.2"/>
<circle cx="956.374" cy="1575.700" r="13.2"/>
<circle cx="837.184" cy="1456.511" r="13.2"/>
<circle cx="1162.816" cy="1456.511" r="13.2"/>
<circle cx="1444.821" cy="1532.074" r="13.2"/>
<circle cx="1043.626" cy="1575.700" r="13.2"/>
<circle cx="1325.632" cy="1651.264" r="13.2"/>
<circle cx="1607.637" cy="1250.069" r="13.2"/>
<circle cx="1325.632" cy="1174.505" r="13.2"/>
<circle cx="1444.821" cy="1293.695" r="13.2"/>
<circle cx="1456.511" cy="837.184" r="13.2"/>
<circle cx="1575.700" cy="956.374" r="13.2"/>
<circle cx="1575.700" cy="1043.626" r="13.2"/>
<circle cx="1293.695" cy="968.063" r="13.2"/>
<circle cx="1174.505" cy="1087.253" r="13.2"/>
<circle cx="1456.511" cy="1162.816" r="13.2"/>
<circle cx="1369.258" cy="1011.690" r="13.2"/>
<circle cx="1651.264" cy="1087.253" r="13.2"/>
<circle cx="1532.074" cy="968.063" r="13.2"/>
<circle cx="1043.626" cy="424.300" r="13.2"/>
<circle cx="1162.816" cy="543.489" r="13.2"/>
<circle cx="837.184" cy="543.489" r="13.2"/>
<circle cx="555.179" cy="467.926" r="13.2"/>
<circle cx="674.368" cy="348.736" r="13.2"/>
<circle cx="956.374" cy="424.300" r="13.2"/>
<circle cx="392.363" cy="749.931" r="13.2"/>
<circle cx="674.368" cy="825.494" r="13.2"/>
<circle cx="555.179" cy="706.305" r="13.2"/>
<circle cx="348.736" cy="1087.253" r="13.2"/>
<circle cx="392.363" cy="1250.069" r="13.2"/>
<circle cx="467.926" cy="968.063" r="13.2"/>
<circle cx="555.179" cy="1293.695" r="13.2"/>
<circle cx="630.742" cy="1011.690" r="13.2"/>
<circle cx="674.368" cy="1174.505" r="13.2"/>
<circle cx="1325.632" cy="825.494" r="13.2"/>
<circle cx="1369.258" cy="988.310" r="13.2"/>
<circle cx="1444.821" cy="706.305" r="13.2"/>
<circle cx="1532.074" cy="1031.937" r="13.2"/>
<circle cx="1607.637" cy="749.931" r="13.2"/>
<circle cx="1651.264" cy="912.747" r="13.2"/>
<circle cx="988.310" cy="630.742" r="13.2"/>
<circle cx="706.305" cy="555.179" r="13.2"/>
<circle cx="825.494" cy="674.368" r="13.2"/>
<circle cx="1250.069" cy="1607.637" r="13.2"/>
<circle cx="968.063" cy="1532.074" r="13.2"/>
<circle cx="1087.253" cy="1651.264" r="13.2"/>
<circle cx="1011.690" cy="1369.258" r="13.2"/>
<circle cx="1293.695" cy="1444.821" r="13.2"/>
<circle cx="1174.505" cy="1325.632" r="13.2"/>
<circle cx="749.931" cy="392.363" r="13.2"/>
<circle cx="1031.937" cy="467.926" r="13.2"/>
<circle cx="912.747" cy="348.736" r="13.2"/>
<circle cx="523.242" cy="1325.632" r="13.2"/>
<circle cx="686.058" cy="1369.258" r="13.2"/>
<circle cx="316.800" cy="1119.189" r="13.2"/>
<circle cx="273.173" cy="956.374" r="13.2"/>
<circle cx="1087.253" cy="1476.758" r="13.2"/>
<circle cx="1250.069" cy="1520.384" r="13.2"/>
<circle cx="880.810" cy="1270.316" r="13.2"/>
<circle cx="837.184" cy="1107.500" r="13.2"/>
<circle cx="1476.758" cy="674.368" r="13.2"/>
<circle cx="1313.942" cy="630.742" r="13.2"/>
<circle cx="1683.200" cy="880.810" r="13.2"/>
<circle cx="1726.827" cy="1043.626" r="13.2"/>
<circle cx="912.747" cy="523.242" r="13.2"/>
<circle cx="749.931" cy="479.616" r="13.2"/>
<circle cx="1119.189" cy="729.684" r="13.2"/>
<circle cx="1162.816" cy="892.500" r="13.2"/>
<circle cx="1087.253" cy="1174.505" r="13.2"/>
<circle cx="968.063" cy="1293.695" r="13.2"/>
<circle cx="1651.264" cy="1325.632" r="13.2"/>
<circle cx="1532.074" cy="1444.821" r="13.2"/>
<circle cx="348.736" cy="674.368" r="13.2"/>
<circle cx="467.926" cy="555.179" r="13.2"/>
<circle cx="912.747" cy="825.494" r="13.2"/>
<circle cx="1031.937" cy="706.305" r="13.2"/>
</g>
<g style="stroke:#000000;stroke-width:1.3;fill:#7f00ff">
<circle cx="1075.563" cy="1607.637" r="13.2"/>
<circle cx="869.121" cy="1401.195" r="13.2"/>
<circle cx="912.747" cy="1564.011" r="13.2"/>
<circle cx="1000.000" cy="1476.758" r="13.2"/>
<circle cx="1075.563" cy="1520.384" r="13.2"/>
<circle cx="793.558" cy="1532.074" r="13.2"/>
<circle cx="1000.000" cy="1651.264" r="13.2"/>
<circle cx="587.115" cy="1325.632" r="13.2"/>
<circle cx="630.742" cy="1488.448" r="13.2"/>
<circle cx="435.989" cy="1325.632" r="13.2"/>
<circle cx="511.552" cy="1369.258" r="13.2"/>
<circle cx="587.115" cy="1238.379" r="13.2"/>
<circle cx="674.368" cy="1564.011" r="13.2"/>
<circle cx="924.437" cy="1520.384" r="13.2"/>
<circle cx="717.995" cy="1313.942" r="13.2"/>
<circle cx="642.431" cy="1444.821" r="13.2"/>
<circle cx="761.621" cy="1564.011" r="13.2"/>
<circle cx="924.437" cy="1607.637" r="13.2"/>
<circle cx="435.989" cy="1238.379" r="13.2"/>
<circle cx="555.179" cy="1357.568" r="13.2"/>
<circle cx="511.552" cy="1194.753" r="13.2"/>
<circle cx="988.310" cy="1282.005" r="13.2"/>
<circle cx="1194.753" cy="1488.448" r="13.2"/>
<circle cx="1151.126" cy="1325.632" r="13.2"/>
<circle cx="1476.758" cy="1000.000" r="13.2"/>
<circle cx="1313.942" cy="1282.005" r="13.2"/>
<circle cx="706.305" cy="1206.442" r="13.2"/>
<circle cx="825.494" cy="1000.000" r="13.2"/>
<circle cx="912.747" cy="1412.885" r="13.2"/>
<circle cx="869.121" cy="1250.069" r="13.2"/>
<circle cx="912.747" cy="848.874" r="13.2"/>
<circle cx="749.931" cy="1130.879" r="13.2"/>
<circle cx="1238.379" cy="1412.885" r="13.2"/>
<circle cx="1151.126" cy="1087.253" r="13.2"/>
<circle cx="1313.942" cy="717.995" r="13.2"/>
<circle cx="1520.384" cy="924.437" r="13.2"/>
<circle cx="1031.937" cy="642.431" r="13.2"/>
<circle cx="1151.126" cy="761.621" r="13.2"/>
<circle cx="988.310" cy="717.995" r="13.2"/>
<circle cx="1238.379" cy="848.874" r="13.2"/>
<circle cx="1357.568" cy="968.063" r="13.2"/>
<circle cx="1401.195" cy="1130.879" r="13.2"/>
<circle cx="924.437" cy="392.363" r="13.2"/>
<circle cx="1130.879" cy="598.805" r="13.2"/>
<circle cx="1087.253" cy="435.989" r="13.2"/>
<circle cx="1000.000" cy="523.242" r="13.2"/>
<circle cx="924.437" cy="479.616" r="13.2"/>
<circle cx="1206.442" cy="467.926" r="13.2"/>
<circle cx="1000.000" cy="348.736" r="13.2"/>
<circle cx="1412.885" cy="674.368" r="13.2"/>
<circle cx="1369.258" cy="511.552" r="13.2"/>
<circle cx="1564.011" cy="674.368" r="13.2"/>
<circle cx="1488.448" cy="630.742" r="13.2"/>
<circle cx="1412.885" cy="761.621" r="13.2"/>
<circle cx="1325.632" cy="435.989" r="13.2"/>
<circle cx="1075.563" cy="479.616" r="13.2"/>
<circle cx="1282.005" cy="686.058" r="13.2"/>
<circle cx="1357.568" cy="555.179" r="13.2"/>
<circle cx="1238.379" cy="435.989" r="13.2"/>
<circle cx="1075.563" cy="392.363" r="13.2"/>
<circle cx="1564.011" cy="761.621" r="13.2"/>
<circle cx="1444.821" cy="642.431" r="13.2"/>
<circle cx="1488.448" cy="805.247" r="13.2"/>
<circle cx="1011.690" cy="717.995" r="13.2"/>
<circle cx="805.247" cy="511.552" r="13.2"/>
<circle cx="848.874" cy="674.368" r="13.2"/>
<circle cx="523.242" cy="1000.000" r="13.2"/>
<circle cx="686.058" cy="717.995" r="13.2"/>
<circle cx="1293.695" cy="793.558" r="13.2"/>
<circle cx="1174.505" cy="1000.000" r="13.2"/>
<circle cx="1087.253" cy="587.115" r="13.2"/>
<circle cx="1130.879" cy="749.931" r="13.2"/>
<circle cx="1087.253" cy="1151.126" r="13.2"/>
<circle cx="1250.069" cy="869.121" r="13.2"/>
<circle cx="761.621" cy="587.115" r="13.2"/>
<circle cx="848.874" cy="912.747" r="13.2"/>
<circle cx="686.058" cy="1282.005" r="13.2"/>
<circle cx="479.616" cy="1075.563" r="13.2"/>
<circle cx="968.063" cy="1357.568" r="13.2"/>
<circle cx="848.874" cy="1238.379" r="13.2"/>
<circle cx="1011.690" cy="1282.005" r="13.2"/>
<circle cx="761.621" cy="1151.126" r="13.2"/>
<circle cx="642.431" cy="1031.937" r="13.2"/>
<circle cx="598.805" cy="869.121" r="13.2"/>
<circle cx="912.747" cy="1151.126" r="13.2"/>
<circle cx="1031.937" cy="1357.568" r="13.2"/>
<circle cx="1564.011" cy="1325.632" r="13.2"/>
<circle cx="1357.568" cy="1444.821" r="13.2"/>
<circle cx="956.374" cy="1162.816" r="13.2"/>
<circle cx="1151.126" cy="912.747" r="13.2"/>
<circle cx="1151.126" cy="1238.379" r="13.2"/>
<circle cx="1325.632" cy="1564.011" r="13.2"/>
<circle cx="1238.379" cy="1564.011" r="13.2"/>
<circle cx="1488.448" cy="1194.753" r="13.2"/>
<circle cx="1282.005" cy="988.310" r="13.2"/>
<circle cx="1325.632" cy="1151.126" r="13.2"/>
<circle cx="1282.005" cy="1313.942" r="13.2"/>
<circle cx="1401.195" cy="869.121" r="13.2"/>
<circle cx="1607.637" cy="1075.563" r="13.2"/>
<circle cx="1564.011" cy="912.747" r="13.2"/>
<circle cx="1520.384" cy="1075.563" r="13.2"/>
<circle cx="1564.011" cy="1238.379" r="13.2"/>
<circle cx="1238.379" cy="1151.126" r="13.2"/>
<circle cx="1162.816" cy="956.374" r="13.2"/>
<circle cx="1444.821" cy="1357.568" r="13.2"/>
<circle cx="1357.568" cy="1031.937" r="13.2"/>
<circle cx="1119.189" cy="1119.189" r="13.2"/>
<circle cx="1087.253" cy="848.874" r="13.2"/>
<circle cx="968.063" cy="642.431" r="13.2"/>
<circle cx="435.989" cy="674.368" r="13.2"/>
<circle cx="642.431" cy="555.179" r="13.2"/>
<circle cx="1043.626" cy="837.184" r="13.2"/>
<circle cx="848.874" cy="1087.253" r="13.2"/>
<circle cx="848.874" cy="761.621" r="13.2"/>
<circle cx="674.368" cy="435.989" r="13.2"/>
<circle cx="761.621" cy="435.989" r="13.2"/>
<circle cx="598.805" cy="1130.879" r="13.2"/>
<circle cx="392.363" cy="924.437" r="13.2"/>
<circle cx="435.989" cy="1087.253" r="13.2"/>
<circle cx="479.616" cy="924.437" r="13.2"/>
<circle cx="511.552" cy="805.247" r="13.2"/>
<circle cx="717.995" cy="1011.690" r="13.2"/>
<circle cx="674.368" cy="848.874" r="13.2"/>
<circle cx="717.995" cy="686.058" r="13.2"/>
<circle cx="435.989" cy="761.621" r="13.2"/>
<circle cx="761.621" cy="848.874" r="13.2"/>
<circle cx="837.184" cy="1043.626" r="13.2"/>
<circle cx="555.179" cy="642.431" r="13.2"/>
<circle cx="642.431" cy="968.063" r="13.2"/>
<circle cx="880.810" cy="880.810" r="13.2"/>
<circle cx="348.736" cy="1000.000" r="13.2"/>
<circle cx="467.926" cy="1206.442" r="13.2"/>
<circle cx="749.931" cy="869.121" r="13.2"/>
<circle cx="467.926" cy="793.558" r="13.2"/>
<circle cx="587.115" cy="912.747" r="13.2"/>
<circle cx="706.305" cy="793.558" r="13.2"/>
<circle cx="674.368" cy="1151.126" r="13.2"/>
<circle cx="392.363" cy="1075.563" r="13.2"/>
<circle cx="1000.000" cy="1174.505" r="13.2"/>
<circle cx="793.558" cy="1293.695" r="13.2"/>
<circle cx="1488.448" cy="1369.258" r="13.2"/>
<circle cx="1206.442" cy="1293.695" r="13.2"/>
<circle cx="1325.632" cy="1412.885" r="13.2"/>
<circle cx="1206.442" cy="1532.074" r="13.2"/>
<circle cx="1564.011" cy="1087.253" r="13.2"/>
<circle cx="1282.005" cy="1011.690" r="13.2"/>
<circle cx="1651.264" cy="1000.000" r="13.2"/>
<circle cx="1532.074" cy="793.558" r="13.2"/>
<circle cx="1250.069" cy="1130.879" r="13.2"/>
<circle cx="1532.074" cy="1206.442" r="13.2"/>
<circle cx="1412.885" cy="1087.253" r="13.2"/>
<circle cx="1293.695" cy="1206.442" r="13.2"/>
<circle cx="1325.632" cy="848.874" r="13.2"/>
<circle cx="1607.637" cy="924.437" r="13.2"/>
<circle cx="1000.000" cy="825.494" r="13.2"/>
<circle cx="1206.442" cy="706.305" r="13.2"/>
<circle cx="511.552" cy="630.742" r="13.2"/>
<circle cx="793.558" cy="706.305" r="13.2"/>
<circle cx="674.368" cy="587.115" r="13.2"/>
<circle cx="793.558" cy="467.926" r="13.2"/>
<circle cx="435.989" cy="912.747" r="13.2"/>
<circle cx="717.995" cy="988.310" r="13.2"/>
<circle cx="587.115" cy="761.621" r="13.2"/>
<circle cx="587.115" cy="1087.253" r="13.2"/>
<circle cx="761.621" cy="1412.885" r="13.2"/>
<circle cx="674.368" cy="1412.885" r="13.2"/>
<circle cx="1412.885" cy="1238.379" r="13.2"/>
<circle cx="1412.885" cy="912.747" r="13.2"/>
<circle cx="1238.379" cy="587.115" r="13.2"/>
<circle cx="1325.632" cy="587.115" r="13.2"/>
<circle cx="869.121" cy="749.931" r="13.2"/>
<circle cx="587.115" cy="674.368" r="13.2"/>
<circle cx="1151.126" cy="674.368" r="13.2"/>
<circle cx="869.121" cy="598.805" r="13.2"/>
<circle cx="1369.258" cy="1488.448" r="13.2"/>
<circle cx="1087.253" cy="1412.885" r="13.2"/>
<circle cx="1087.253" cy="1564.011" r="13.2"/>
<circle cx="805.247" cy="1488.448" r="13.2"/>
<circle cx="1130.879" cy="1250.069" r="13.2"/>
<circle cx="1412.885" cy="1325.632" r="13.2"/>
<circle cx="848.874" cy="1325.632" r="13.2"/>
<circle cx="1130.879" cy="1401.195" r="13.2"/>
<circle cx="630.742" cy="511.552" r="13.2"/>
<circle cx="912.747" cy="587.115" r="13.2"/>
<circle cx="912.747" cy="435.989" r="13.2"/>
<circle cx="1194.753" cy="511.552" r="13.2"/>
<circle cx="880.810" cy="1119.189" r="13.2"/>
<circle cx="1162.816" cy="1043.626" r="13.2"/>
<circle cx="1043.626" cy="1162.816" r="13.2"/>
<circle cx="1119.189" cy="880.810" r="13.2"/>
<circle cx="837.184" cy="956.374" r="13.2"/>
<circle cx="956.374" cy="837.184" r="13.2"/>
</g>
<g style="stroke:#000000;stroke-width:1.3;fill:#ff00ff">
<circle cx="793.558" cy="1444.821" r="13.2"/>
<circle cx="956.374" cy="1488.448" r="13.2"/>
<circle cx="749.931" cy="1282.005" r="13.2"/>
<circle cx="880.810" cy="1357.568" r="13.2"/>
<circle cx="717.995" cy="1401.195" r="13.2"/>
<circle cx="598.805" cy="1282.005" r="13.2"/>
<circle cx="1031.937" cy="1206.442" r="13.2"/>
<circle cx="869.121" cy="1162.816" r="13.2"/>
<circle cx="1075.563" cy="1369.258" r="13.2"/>
<circle cx="1357.568" cy="880.810" r="13.2"/>
<circle cx="1194.753" cy="924.437" r="13.2"/>
<circle cx="1075.563" cy="805.247" r="13.2"/>
<circle cx="1206.442" cy="555.179" r="13.2"/>
<circle cx="1043.626" cy="511.552" r="13.2"/>
<circle cx="1250.069" cy="717.995" r="13.2"/>
<circle cx="1119.189" cy="642.431" r="13.2"/>
<circle cx="1282.005" cy="598.805" r="13.2"/>
<circle cx="1401.195" cy="717.995" r="13.2"/>
<circle cx="968.063" cy="793.558" r="13.2"/>
<circle cx="1130.879" cy="837.184" r="13.2"/>
<circle cx="924.437" cy="630.742" r="13.2"/>
<circle cx="642.431" cy="1119.189" r="13.2"/>
<circle cx="805.247" cy="1075.563" r="13.2"/>
<circle cx="924.437" cy="1194.753" r="13.2"/>
<circle cx="1206.442" cy="1031.937" r="13.2"/>
<circle cx="1444.821" cy="793.558" r="13.2"/>
<circle cx="1488.448" cy="956.374" r="13.2"/>
<circle cx="1162.816" cy="869.121" r="13.2"/>
<circle cx="1369.258" cy="1075.563" r="13.2"/>
<circle cx="1282.005" cy="749.931" r="13.2"/>
<circle cx="793.558" cy="1031.937" r="13.2"/>
<circle cx="1075.563" cy="1194.753" r="13.2"/>
<circle cx="1119.189" cy="1357.568" r="13.2"/>
<circle cx="1282.005" cy="1401.195" r="13.2"/>
<circle cx="1357.568" cy="1119.189" r="13.2"/>
<circle cx="1206.442" cy="1444.821" r="13.2"/>
<circle cx="1031.937" cy="793.558" r="13.2"/>
<circle cx="1194.753" cy="1075.563" r="13.2"/>
<circle cx="1401.195" cy="1282.005" r="13.2"/>
<circle cx="1444.821" cy="1206.442" r="13.2"/>
<circle cx="555.179" cy="1206.442" r="13.2"/>
<circle cx="793.558" cy="968.063" r="13.2"/>
<circle cx="511.552" cy="1043.626" r="13.2"/>
<circle cx="837.184" cy="1130.879" r="13.2"/>
<circle cx="630.742" cy="924.437" r="13.2"/>
<circle cx="717.995" cy="1250.069" r="13.2"/>
<circle cx="598.805" cy="717.995" r="13.2"/>
<circle cx="642.431" cy="880.810" r="13.2"/>
<circle cx="555.179" cy="793.558" r="13.2"/>
<circle cx="805.247" cy="924.437" r="13.2"/>
<circle cx="880.810" cy="642.431" r="13.2"/>
<circle cx="968.063" cy="1206.442" r="13.2"/>
<circle cx="717.995" cy="598.805" r="13.2"/>
<circle cx="924.437" cy="805.247" r="13.2"/>
<circle cx="793.558" cy="555.179" r="13.2"/>
<circle cx="1206.442" cy="968.063" r="13.2"/>
<circle cx="630.742" cy="1075.563" r="13.2"/>
<circle cx="511.552" cy="956.374" r="13.2"/>
<circle cx="1282.005" cy="1250.069" r="13.2"/>
<circle cx="1162.816" cy="1130.879" r="13.2"/>
<circle cx="1369.258" cy="924.437" r="13.2"/>
<circle cx="1488.448" cy="1043.626" r="13.2"/>
<circle cx="717.995" cy="749.931" r="13.2"/>
<circle cx="837.184" cy="869.121" r="13.2"/>
<circle cx="924.437" cy="1369.258" r="13.2"/>
<circle cx="749.931" cy="717.995" r="13.2"/>
<circle cx="1250.069" cy="1282.005" r="13.2"/>
<circle cx="1075.563" cy="630.742" r="13.2"/>
<circle cx="869.121" cy="837.184" r="13.2"/>
<circle cx="1043.626" cy="1488.448" r="13.2"/>
<circle cx="1130.879" cy="1162.816" r="13.2"/>
<circle cx="956.374" cy="511.552" r="13.2"/>
</g>
<g style="stroke:#000000;stroke-width:1.3;fill:#ff007f">
<circle cx="793.558" cy="1357.568" r="13.2"/>
<circle cx="1000.000" cy="1564.011" r="13.2"/>
<circle cx="511.552" cy="1282.005" r="13.2"/>
<circle cx="717.995" cy="1488.448" r="13.2"/>
<circle cx="1151.126" cy="1000.000" r="13.2"/>
<circle cx="1357.568" cy="1206.442" r="13.2"/>
<circle cx="869.121" cy="924.437" r="13.2"/>
<circle cx="1075.563" cy="1130.879" r="13.2"/>
<circle cx="1000.000" cy="435.989" r="13.2"/>
<circle cx="1206.442" cy="642.431" r="13.2"/>
<circle cx="1282.005" cy="511.552" r="13.2"/>
<circle cx="1488.448" cy="717.995" r="13.2"/>
<circle cx="642.431" cy="793.558" r="13.2"/>
<circle cx="848.874" cy="1000.000" r="13.2"/>
<circle cx="924.437" cy="869.121" r="13.2"/>
<circle cx="1130.879" cy="1075.563" r="13.2"/>
<circle cx="869.121" cy="1075.563" r="13.2"/>
<circle cx="1282.005" cy="1488.448" r="13.2"/>
<circle cx="1000.000" cy="1151.126" r="13.2"/>
<circle cx="1206.442" cy="1357.568" r="13.2"/>
<circle cx="1357.568" cy="793.558" r="13.2"/>
<circle cx="1564.011" cy="1000.000" r="13.2"/>
<circle cx="1488.448" cy="1282.005" r="13.2"/>
<circle cx="1075.563" cy="869.121" r="13.2"/>
<circle cx="1130.879" cy="924.437" r="13.2"/>
<circle cx="717.995" cy="511.552" r="13.2"/>
<circle cx="435.989" cy="1000.000" r="13.2"/>
<circle cx="642.431" cy="1206.442" r="13.2"/>
<circle cx="793.558" cy="642.431" r="13.2"/>
<circle cx="1000.000" cy="848.874" r="13.2"/>
<circle cx="511.552" cy="717.995" r="13.2"/>
<circle cx="924.437" cy="1130.879" r="13.2"/>
<circle cx="587.115" cy="1000.000" r="13.2"/>
<circle cx="1000.000" cy="1412.885" r="13.2"/>
<circle cx="1412.885" cy="1000.000" r="13.2"/>
<circle cx="1000.000" cy="587.115" r="13.2"/>
</g>
<g style="stroke:#000000;stroke-width:1.3;fill:#ff0000">
<circle cx="837.184" cy="1520.384" r="13.2"/>
<circle cx="587.115" cy="1564.011" r="13.2"/>
<circle cx="555.179" cy="1444.821" r="13.2"/>
<circle cx="793.558" cy="1770.453" r="13.2"/>
<circle cx="630.742" cy="1401.195" r="13.2"/>
<circle cx="837.184" cy="1607.637" r="13.2"/>
<circle cx="435.989" cy="1564.011" r="13.2"/>
<circle cx="717.995" cy="1639.574" r="13.2"/>
<circle cx="1313.942" cy="1043.626" r="13.2"/>
<circle cx="1151.126" cy="1412.885" r="13.2"/>
<circle cx="1031.937" cy="968.063" r="13.2"/>
<circle cx="944.684" cy="1206.442" r="13.2"/>
<circle cx="988.310" cy="1043.626" r="13.2"/>
<circle cx="1194.753" cy="1250.069" r="13.2"/>
<circle cx="1151.126" cy="848.874" r="13.2"/>
<circle cx="1433.132" cy="924.437" r="13.2"/>
<circle cx="1162.816" cy="479.616" r="13.2"/>
<circle cx="1412.885" cy="435.989" r="13.2"/>
<circle cx="1444.821" cy="555.179" r="13.2"/>
<circle cx="1206.442" cy="229.547" r="13.2"/>
<circle cx="1162.816" cy="392.363" r="13.2"/>
<circle cx="1369.258" cy="598.805" r="13.2"/>
<circle cx="1564.011" cy="435.989" r="13.2"/>
<circle cx="1282.005" cy="360.426" r="13.2"/>
<circle cx="686.058" cy="956.374" r="13.2"/>
<circle cx="848.874" cy="587.115" r="13.2"/>
<circle cx="968.063" cy="1031.937" r="13.2"/>
<circle cx="1055.316" cy="793.558" r="13.2"/>
<circle cx="805.247" cy="749.931" r="13.2"/>
<circle cx="1011.690" cy="956.374" r="13.2"/>
<circle cx="848.874" cy="1151.126" r="13.2"/>
<circle cx="566.868" cy="1075.563" r="13.2"/>
<circle cx="587.115" cy="1412.885" r="13.2"/>
<circle cx="749.931" cy="1194.753" r="13.2"/>
<circle cx="1401.195" cy="1369.258" r="13.2"/>
<circle cx="1000.000" cy="1000.000" r="13.2"/>
<circle cx="1151.126" cy="1564.011" r="13.2"/>
<circle cx="988.310" cy="956.374" r="13.2"/>
<circle cx="1162.816" cy="1607.637" r="13.2"/>
<circle cx="1031.937" cy="1444.821" r="13.2"/>
<circle cx="1194.753" cy="1401.195" r="13.2"/>
<circle cx="1043.626" cy="1313.942" r="13.2"/>
<circle cx="1520.384" cy="837.184" r="13.2"/>
<circle cx="1607.637" cy="1162.816" r="13.2"/>
<circle cx="956.374" cy="988.310" r="13.2"/>
<circle cx="1564.011" cy="1151.126" r="13.2"/>
<circle cx="1369.258" cy="1401.195" r="13.2"/>
<circle cx="1194.753" cy="749.931" r="13.2"/>
<circle cx="1444.821" cy="1031.937" r="13.2"/>
<circle cx="1401.195" cy="1194.753" r="13.2"/>
<circle cx="956.374" cy="1313.942" r="13.2"/>
<circle cx="1031.937" cy="1031.937" r="13.2"/>
<circle cx="1162.816" cy="1520.384" r="13.2"/>
<circle cx="1075.563" cy="1433.132" r="13.2"/>
<circle cx="1151.126" cy="1151.126" r="13.2"/>
<circle cx="1282.005" cy="1639.574" r="13.2"/>
<circle cx="1444.821" cy="1444.821" r="13.2"/>
<circle cx="1564.011" cy="1564.011" r="13.2"/>
<circle cx="1313.942" cy="956.374" r="13.2"/>
<circle cx="1433.132" cy="1075.563" r="13.2"/>
<circle cx="1520.384" cy="1162.816" r="13.2"/>
<circle cx="1639.574" cy="1282.005" r="13.2"/>
<circle cx="1412.885" cy="587.115" r="13.2"/>
<circle cx="1250.069" cy="805.247" r="13.2"/>
<circle cx="598.805" cy="630.742" r="13.2"/>
<circle cx="848.874" cy="435.989" r="13.2"/>
<circle cx="1011.690" cy="1043.626" r="13.2"/>
<circle cx="837.184" cy="392.363" r="13.2"/>
<circle cx="968.063" cy="555.179" r="13.2"/>
<circle cx="805.247" cy="598.805" r="13.2"/>
<circle cx="479.616" cy="1162.816" r="13.2"/>
<circle cx="956.374" cy="686.058" r="13.2"/>
<circle cx="392.363" cy="837.184" r="13.2"/>
<circle cx="1043.626" cy="1011.690" r="13.2"/>
<circle cx="435.989" cy="848.874" r="13.2"/>
<circle cx="630.742" cy="598.805" r="13.2"/>
<circle cx="805.247" cy="1250.069" r="13.2"/>
<circle cx="555.179" cy="968.063" r="13.2"/>
<circle cx="598.805" cy="805.247" r="13.2"/>
<circle cx="360.426" cy="717.995" r="13.2"/>
<circle cx="479.616" cy="837.184" r="13.2"/>
<circle cx="435.989" cy="435.989" r="13.2"/>
<circle cx="555.179" cy="555.179" r="13.2"/>
<circle cx="566.868" cy="924.437" r="13.2"/>
<circle cx="686.058" cy="1043.626" r="13.2"/>
<circle cx="848.874" cy="848.874" r="13.2"/>
<circle cx="968.063" cy="968.063" r="13.2"/>
<circle cx="717.995" cy="360.426" r="13.2"/>
<circle cx="837.184" cy="479.616" r="13.2"/>
<circle cx="924.437" cy="566.868" r="13.2"/>
<circle cx="1043.626" cy="686.058" r="13.2"/>
<circle cx="467.926" cy="1119.189" r="13.2"/>
<circle cx="662.679" cy="1282.005" r="13.2"/>
<circle cx="706.305" cy="1119.189" r="13.2"/>
<circle cx="305.110" cy="1075.563" r="13.2"/>
<circle cx="587.115" cy="1151.126" r="13.2"/>
<circle cx="1119.189" cy="1293.695" r="13.2"/>
<circle cx="1075.563" cy="1694.890" r="13.2"/>
<circle cx="1119.189" cy="1532.074" r="13.2"/>
<circle cx="1282.005" cy="1337.321" r="13.2"/>
<circle cx="1564.011" cy="1412.885" r="13.2"/>
<circle cx="1532.074" cy="880.810" r="13.2"/>
<circle cx="1337.321" cy="717.995" r="13.2"/>
<circle cx="1293.695" cy="880.810" r="13.2"/>
<circle cx="1694.890" cy="924.437" r="13.2"/>
<circle cx="1412.885" cy="848.874" r="13.2"/>
<circle cx="880.810" cy="706.305" r="13.2"/>
<circle cx="924.437" cy="305.110" r="13.2"/>
<circle cx="880.810" cy="467.926" r="13.2"/>
<circle cx="717.995" cy="662.679" r="13.2"/>
<circle cx="435.989" cy="587.115" r="13.2"/>
<circle cx="706.305" cy="880.810" r="13.2"/>
<circle cx="880.810" cy="1532.074" r="13.2"/>
<circle cx="749.931" cy="1369.258" r="13.2"/>
<circle cx="630.742" cy="1250.069" r="13.2"/>
<circle cx="229.547" cy="1206.442" r="13.2"/>
<circle cx="392.363" cy="1162.816" r="13.2"/>
<circle cx="305.110" cy="924.437" r="13.2"/>
<circle cx="467.926" cy="880.810" r="13.2"/>
<circle cx="435.989" cy="1412.885" r="13.2"/>
<circle cx="598.805" cy="1369.258" r="13.2"/>
<circle cx="717.995" cy="1337.321" r="13.2"/>
<circle cx="880.810" cy="1293.695" r="13.2"/>
<circle cx="587.115" cy="848.874" r="13.2"/>
<circle cx="749.931" cy="805.247" r="13.2"/>
<circle cx="793.558" cy="1055.316" r="13.2"/>
<circle cx="956.374" cy="1011.690" r="13.2"/>
<circle cx="1293.695" cy="1119.189" r="13.2"/>
<circle cx="1119.189" cy="467.926" r="13.2"/>
<circle cx="1250.069" cy="630.742" r="13.2"/>
<circle cx="1369.258" cy="749.931" r="13.2"/>
<circle cx="1043.626" cy="988.310" r="13.2"/>
<circle cx="1119.189" cy="706.305" r="13.2"/>
<circle cx="1250.069" cy="1194.753" r="13.2"/>
<circle cx="1532.074" cy="1119.189" r="13.2"/>
<circle cx="1206.442" cy="944.684" r="13.2"/>
<circle cx="1282.005" cy="662.679" r="13.2"/>
<circle cx="1412.885" cy="1151.126" r="13.2"/>
<circle cx="1694.890" cy="1075.563" r="13.2"/>
<circle cx="1401.195" cy="630.742" r="13.2"/>
<circle cx="1607.637" cy="837.184" r="13.2"/>
<circle cx="1564.011" cy="587.115" r="13.2"/>
<circle cx="1770.453" cy="793.558" r="13.2"/>
<circle cx="662.679" cy="717.995" r="13.2"/>
<circle cx="944.684" cy="793.558" r="13.2"/>
<circle cx="924.437" cy="1694.890" r="13.2"/>
<circle cx="1206.442" cy="1770.453" r="13.2"/>
<circle cx="1337.321" cy="1282.005" r="13.2"/>
<circle cx="1055.316" cy="1206.442" r="13.2"/>
<circle cx="1075.563" cy="305.110" r="13.2"/>
<circle cx="793.558" cy="229.547" r="13.2"/>
<circle cx="360.426" cy="1282.005" r="13.2"/>
<circle cx="924.437" cy="1433.132" r="13.2"/>
<circle cx="1639.574" cy="717.995" r="13.2"/>
<circle cx="1075.563" cy="566.868" r="13.2"/>
<circle cx="435.989" cy="1151.126" r="13.2"/>
<circle cx="848.874" cy="1564.011" r="13.2"/>
<circle cx="805.247" cy="1401.195" r="13.2"/>
<circle cx="968.063" cy="1444.821" r="13.2"/>
<circle cx="1412.885" cy="1412.885" r="13.2"/>
<circle cx="1369.258" cy="1250.069" r="13.2"/>
<circle cx="1250.069" cy="1369.258" r="13.2"/>
<circle cx="848.874" cy="1412.885" r="13.2"/>
<circle cx="1412.885" cy="1564.011" r="13.2"/>
<circle cx="1564.011" cy="848.874" r="13.2"/>
<circle cx="1151.126" cy="435.989" r="13.2"/>
<circle cx="1194.753" cy="598.805" r="13.2"/>
<circle cx="1031.937" cy="555.179" r="13.2"/>
<circle cx="587.115" cy="587.115" r="13.2"/>
<circle cx="630.742" cy="749.931" r="13.2"/>
<circle cx="749.931" cy="630.742" r="13.2"/>
<circle cx="587.115" cy="435.989" r="13.2"/>
<circle cx="1151.126" cy="587.115" r="13.2"/>
<circle cx="598.805" cy="1194.753" r="13.2"/>
<circle cx="555.179" cy="1031.937" r="13.2"/>
<circle cx="229.547" cy="793.558" r="13.2"/>
<circle cx="793.558" cy="944.684" r="13.2"/>
<circle cx="1401.195" cy="805.247" r="13.2"/>
<circle cx="1444.821" cy="968.063" r="13.2"/>
<circle cx="1206.442" cy="1055.316" r="13.2"/>
<circle cx="1770.453" cy="1206.442" r="13.2"/>
</g>
<g style="stroke:#000000;stroke-width:1.3;fill:#ff7f00">
<circle cx="956.374" cy="1639.574" r="13.2"/>
<circle cx="467.926" cy="1357.568" r="13.2"/>
<circle cx="511.552" cy="1520.384" r="13.2"/>
<circle cx="837.184" cy="1694.890" r="13.2"/>
<circle cx="1119.189" cy="1770.453" r="13.2"/>
<circle cx="392.363" cy="1488.448" r="13.2"/>
<circle cx="424.300" cy="1282.005" r="13.2"/>
<circle cx="706.305" cy="1357.568" r="13.2"/>
<circle cx="717.995" cy="1726.827" r="13.2"/>
<circle cx="880.810" cy="1770.453" r="13.2"/>
<circle cx="511.552" cy="1607.637" r="13.2"/>
<circle cx="793.558" cy="1683.200" r="13.2"/>
<circle cx="837.184" cy="1433.132" r="13.2"/>
<circle cx="1043.626" cy="1639.574" r="13.2"/>
<circle cx="273.173" cy="1282.005" r="13.2"/>
<circle cx="479.616" cy="1488.448" r="13.2"/>
<circle cx="1433.132" cy="1162.816" r="13.2"/>
<circle cx="662.679" cy="1043.626" r="13.2"/>
<circle cx="944.684" cy="1119.189" r="13.2"/>
<circle cx="1313.942" cy="1130.879" r="13.2"/>
<circle cx="1357.568" cy="1293.695" r="13.2"/>
<circle cx="869.121" cy="1011.690" r="13.2"/>
<circle cx="944.684" cy="880.810" r="13.2"/>
<circle cx="1107.500" cy="924.437" r="13.2"/>
<circle cx="1075.563" cy="1456.511" r="13.2"/>
<circle cx="1357.568" cy="1532.074" r="13.2"/>
<circle cx="988.310" cy="1130.879" r="13.2"/>
<circle cx="1270.316" cy="1206.442" r="13.2"/>
<circle cx="1433.132" cy="837.184" r="13.2"/>
<circle cx="1639.574" cy="1043.626" r="13.2"/>
<circle cx="869.121" cy="686.058" r="13.2"/>
<circle cx="1075.563" cy="892.500" r="13.2"/>
<circle cx="1043.626" cy="360.426" r="13.2"/>
<circle cx="1488.448" cy="479.616" r="13.2"/>
<circle cx="1532.074" cy="642.431" r="13.2"/>
<circle cx="880.810" cy="229.547" r="13.2"/>
<circle cx="1162.816" cy="305.110" r="13.2"/>
<circle cx="1607.637" cy="511.552" r="13.2"/>
<circle cx="1293.695" cy="642.431" r="13.2"/>
<circle cx="1575.700" cy="717.995" r="13.2"/>
<circle cx="1119.189" cy="229.547" r="13.2"/>
<circle cx="1282.005" cy="273.173" r="13.2"/>
<circle cx="1206.442" cy="316.800" r="13.2"/>
<circle cx="1488.448" cy="392.363" r="13.2"/>
<circle cx="956.374" cy="360.426" r="13.2"/>
<circle cx="1162.816" cy="566.868" r="13.2"/>
<circle cx="1520.384" cy="511.552" r="13.2"/>
<circle cx="1726.827" cy="717.995" r="13.2"/>
<circle cx="566.868" cy="837.184" r="13.2"/>
<circle cx="1055.316" cy="880.810" r="13.2"/>
<circle cx="1337.321" cy="956.374" r="13.2"/>
<circle cx="642.431" cy="706.305" r="13.2"/>
<circle cx="686.058" cy="869.121" r="13.2"/>
<circle cx="1130.879" cy="988.310" r="13.2"/>
<circle cx="892.500" cy="1075.563" r="13.2"/>
<circle cx="1055.316" cy="1119.189" r="13.2"/>
<circle cx="642.431" cy="467.926" r="13.2"/>
<circle cx="924.437" cy="543.489" r="13.2"/>
<circle cx="729.684" cy="793.558" r="13.2"/>
<circle cx="1011.690" cy="869.121" r="13.2"/>
<circle cx="360.426" cy="956.374" r="13.2"/>
<circle cx="566.868" cy="1162.816" r="13.2"/>
<circle cx="924.437" cy="1107.500" r="13.2"/>
<circle cx="1130.879" cy="1313.942" r="13.2"/>
<circle cx="869.121" cy="1313.942" r="13.2"/>
<circle cx="1520.384" cy="1488.448" r="13.2"/>
<circle cx="1107.500" cy="1075.563" r="13.2"/>
<circle cx="1282.005" cy="1726.827" r="13.2"/>
<circle cx="1162.816" cy="1433.132" r="13.2"/>
<circle cx="1639.574" cy="956.374" r="13.2"/>
<circle cx="1726.827" cy="1282.005" r="13.2"/>
<circle cx="1075.563" cy="1107.500" r="13.2"/>
<circle cx="1488.448" cy="1520.384" r="13.2"/>
<circle cx="1313.942" cy="869.121" r="13.2"/>
<circle cx="1130.879" cy="686.058" r="13.2"/>
<circle cx="479.616" cy="511.552" r="13.2"/>
<circle cx="892.500" cy="924.437" r="13.2"/>
<circle cx="717.995" cy="273.173" r="13.2"/>
<circle cx="360.426" cy="1043.626" r="13.2"/>
<circle cx="837.184" cy="566.868" r="13.2"/>
<circle cx="273.173" cy="717.995" r="13.2"/>
<circle cx="924.437" cy="892.500" r="13.2"/>
<circle cx="511.552" cy="479.616" r="13.2"/>
<circle cx="686.058" cy="1130.879" r="13.2"/>
<circle cx="305.110" cy="1162.816" r="13.2"/>
<circle cx="543.489" cy="1075.563" r="13.2"/>
<circle cx="662.679" cy="956.374" r="13.2"/>
<circle cx="793.558" cy="1270.316" r="13.2"/>
<circle cx="869.121" cy="988.310" r="13.2"/>
<circle cx="229.547" cy="1119.189" r="13.2"/>
<circle cx="305.110" cy="837.184" r="13.2"/>
<circle cx="956.374" cy="1337.321" r="13.2"/>
<circle cx="1162.816" cy="1694.890" r="13.2"/>
<circle cx="1282.005" cy="1575.700" r="13.2"/>
<circle cx="1607.637" cy="1488.448" r="13.2"/>
<circle cx="1683.200" cy="1206.442" r="13.2"/>
<circle cx="1043.626" cy="1337.321" r="13.2"/>
<circle cx="1119.189" cy="1055.316" r="13.2"/>
<circle cx="1694.890" cy="837.184" r="13.2"/>
<circle cx="1337.321" cy="1043.626" r="13.2"/>
<circle cx="1456.511" cy="924.437" r="13.2"/>
<circle cx="1130.879" cy="1011.690" r="13.2"/>
<circle cx="1206.442" cy="729.684" r="13.2"/>
<circle cx="1694.890" cy="1162.816" r="13.2"/>
<circle cx="1770.453" cy="880.810" r="13.2"/>
<circle cx="1043.626" cy="662.679" r="13.2"/>
<circle cx="717.995" cy="424.300" r="13.2"/>
<circle cx="837.184" cy="305.110" r="13.2"/>
<circle cx="316.800" cy="793.558" r="13.2"/>
<circle cx="392.363" cy="511.552" r="13.2"/>
<circle cx="880.810" cy="944.684" r="13.2"/>
<circle cx="956.374" cy="662.679" r="13.2"/>
<circle cx="543.489" cy="924.437" r="13.2"/>
<circle cx="717.995" cy="1575.700" r="13.2"/>
<circle cx="316.800" cy="1206.442" r="13.2"/>
<circle cx="793.558" cy="729.684" r="13.2"/>
<circle cx="229.547" cy="880.810" r="13.2"/>
<circle cx="880.810" cy="1055.316" r="13.2"/>
<circle cx="467.926" cy="642.431" r="13.2"/>
<circle cx="642.431" cy="1293.695" r="13.2"/>
<circle cx="1456.511" cy="1075.563" r="13.2"/>
<circle cx="1282.005" cy="424.300" r="13.2"/>
<circle cx="1206.442" cy="1270.316" r="13.2"/>
<circle cx="1683.200" cy="793.558" r="13.2"/>
<circle cx="1119.189" cy="944.684" r="13.2"/>
<circle cx="1770.453" cy="1119.189" r="13.2"/>
<circle cx="1532.074" cy="1357.568" r="13.2"/>
<circle cx="1357.568" cy="706.305" r="13.2"/>
<circle cx="988.310" cy="869.121" r="13.2"/>
<circle cx="1270.316" cy="793.558" r="13.2"/>
<circle cx="424.300" cy="717.995" r="13.2"/>
<circle cx="706.305" cy="642.431" r="13.2"/>
<circle cx="1206.442" cy="1683.200" r="13.2"/>
<circle cx="1488.448" cy="1607.637" r="13.2"/>
<circle cx="642.431" cy="1532.074" r="13.2"/>
<circle cx="924.437" cy="1456.511" r="13.2"/>
<circle cx="729.684" cy="1206.442" r="13.2"/>
<circle cx="1011.690" cy="1130.879" r="13.2"/>
<circle cx="1293.695" cy="1357.568" r="13.2"/>
<circle cx="1575.700" cy="1282.005" r="13.2"/>
<circle cx="511.552" cy="392.363" r="13.2"/>
<circle cx="793.558" cy="316.800" r="13.2"/>
<circle cx="1075.563" cy="543.489" r="13.2"/>
<circle cx="1357.568" cy="467.926" r="13.2"/>
</g>
<g style="stroke:#000000;stroke-width:1.3;fill:#ffff00">
<circle cx="956.374" cy="1401.195" r="13.2"/>
<circle cx="674.368" cy="1325.632" r="13.2"/>
<circle cx="880.810" cy="1444.821" r="13.2"/>
<circle cx="674.368" cy="1238.379" r="13.2"/>
<circle cx="1194.753" cy="1162.816" r="13.2"/>
<circle cx="912.747" cy="1087.253" r="13.2"/>
<circle cx="1031.937" cy="880.810" r="13.2"/>
<circle cx="1238.379" cy="1087.253" r="13.2"/>
<circle cx="1043.626" cy="598.805" r="13.2"/>
<circle cx="1325.632" cy="674.368" r="13.2"/>
<circle cx="1119.189" cy="555.179" r="13.2"/>
<circle cx="1325.632" cy="761.621" r="13.2"/>
<circle cx="805.247" cy="837.184" r="13.2"/>
<circle cx="1087.253" cy="912.747" r="13.2"/>
<circle cx="968.063" cy="1119.189" r="13.2"/>
<circle cx="761.621" cy="912.747" r="13.2"/>
<circle cx="912.747" cy="1238.379" r="13.2"/>
<circle cx="1238.379" cy="1325.632" r="13.2"/>
<circle cx="912.747" cy="1325.632" r="13.2"/>
<circle cx="1031.937" cy="1119.189" r="13.2"/>
<circle cx="1119.189" cy="1444.821" r="13.2"/>
<circle cx="1238.379" cy="1238.379" r="13.2"/>
<circle cx="1075.563" cy="1282.005" r="13.2"/>
<circle cx="1162.816" cy="1194.753" r="13.2"/>
<circle cx="1401.195" cy="956.374" r="13.2"/>
<circle cx="1444.821" cy="1119.189" r="13.2"/>
<circle cx="1119.189" cy="1031.937" r="13.2"/>
<circle cx="1325.632" cy="912.747" r="13.2"/>
<circle cx="1325.632" cy="1238.379" r="13.2"/>
<circle cx="1238.379" cy="912.747" r="13.2"/>
<circle cx="1282.005" cy="1075.563" r="13.2"/>
<circle cx="837.184" cy="1194.753" r="13.2"/>
<circle cx="912.747" cy="912.747" r="13.2"/>
<circle cx="1043.626" cy="1401.195" r="13.2"/>
<circle cx="1325.632" cy="1325.632" r="13.2"/>
<circle cx="1194.753" cy="837.184" r="13.2"/>
<circle cx="1401.195" cy="1043.626" r="13.2"/>
<circle cx="1087.253" cy="761.621" r="13.2"/>
<circle cx="761.621" cy="674.368" r="13.2"/>
<circle cx="1087.253" cy="674.368" r="13.2"/>
<circle cx="968.063" cy="880.810" r="13.2"/>
<circle cx="880.810" cy="555.179" r="13.2"/>
<circle cx="761.621" cy="761.621" r="13.2"/>
<circle cx="924.437" cy="717.995" r="13.2"/>
<circle cx="598.805" cy="1043.626" r="13.2"/>
<circle cx="837.184" cy="805.247" r="13.2"/>
<circle cx="555.179" cy="880.810" r="13.2"/>
<circle cx="880.810" cy="968.063" r="13.2"/>
<circle cx="674.368" cy="1087.253" r="13.2"/>
<circle cx="674.368" cy="761.621" r="13.2"/>
<circle cx="761.621" cy="1087.253" r="13.2"/>
<circle cx="717.995" cy="924.437" r="13.2"/>
<circle cx="598.805" cy="956.374" r="13.2"/>
<circle cx="674.368" cy="674.368" r="13.2"/>
<circle cx="805.247" cy="1162.816" r="13.2"/>
<circle cx="1087.253" cy="1087.253" r="13.2"/>
<circle cx="956.374" cy="598.805" r="13.2"/>
<circle cx="1162.816" cy="805.247" r="13.2"/>
<circle cx="630.742" cy="1162.816" r="13.2"/>
<circle cx="749.931" cy="956.374" r="13.2"/>
<circle cx="956.374" cy="1250.069" r="13.2"/>
<circle cx="1162.816" cy="1369.258" r="13.2"/>
<circle cx="1369.258" cy="837.184" r="13.2"/>
<circle cx="1250.069" cy="1043.626" r="13.2"/>
<circle cx="1043.626" cy="749.931" r="13.2"/>
<circle cx="837.184" cy="630.742" r="13.2"/>
<circle cx="749.931" cy="1043.626" r="13.2"/>
<circle cx="837.184" cy="1369.258" r="13.2"/>
<circle cx="793.558" cy="1206.442" r="13.2"/>
<circle cx="555.179" cy="1119.189" r="13.2"/>
<circle cx="630.742" cy="837.184" r="13.2"/>
<circle cx="761.621" cy="1325.632" r="13.2"/>
<circle cx="1043.626" cy="1250.069" r="13.2"/>
<circle cx="912.747" cy="761.621" r="13.2"/>
<circle cx="1119.189" cy="968.063" r="13.2"/>
<circle cx="1250.069" cy="956.374" r="13.2"/>
<circle cx="1162.816" cy="630.742" r="13.2"/>
<circle cx="1206.442" cy="793.558" r="13.2"/>
<circle cx="880.810" cy="1031.937" r="13.2"/>
<circle cx="956.374" cy="749.931" r="13.2"/>
<circle cx="1087.253" cy="1238.379" r="13.2"/>
<circle cx="1369.258" cy="1162.816" r="13.2"/>
<circle cx="1238.379" cy="674.368" r="13.2"/>
<circle cx="1444.821" cy="880.810" r="13.2"/>
<circle cx="761.621" cy="1238.379" r="13.2"/>
<circle cx="1087.253" cy="1325.632" r="13.2"/>
<circle cx="924.437" cy="1282.005" r="13.2"/>
<circle cx="1325.632" cy="1087.253" r="13.2"/>
<circle cx="1206.442" cy="1206.442" r="13.2"/>
<circle cx="1238.379" cy="761.621" r="13.2"/>
<circle cx="912.747" cy="674.368" r="13.2"/>
<circle cx="1075.563" cy="717.995" r="13.2"/>
<circle cx="674.368" cy="912.747" r="13.2"/>
<circle cx="793.558" cy="793.558" r="13.2"/>
<circle cx="717.995" cy="1075.563" r="13.2"/>
<circle cx="1282.005" cy="924.437" r="13.2"/>
</g>
<g style="stroke:#000000;stroke-width:1.3;fill:#00ff00">
<circle cx="511.552" cy="1846.016" r="13.2"/>
<circle cx="1226.689" cy="1130.879" r="13.2"/>
<circle cx="1488.448" cy="153.984" r="13.2"/>
<circle cx="773.311" cy="869.121" r="13.2"/>
<circle cx="380.673" cy="1357.568" r="13.2"/>
<circle cx="1357.568" cy="1619.327" r="13.2"/>
<circle cx="1619.327" cy="642.431" r="13.2"/>
<circle cx="642.431" cy="380.673" r="13.2"/>
<circle cx="738.242" cy="1000.000" r="13.2"/>
<circle cx="1000.000" cy="1976.895" r="13.2"/>
<circle cx="1261.758" cy="1000.000" r="13.2"/>
<circle cx="1000.000" cy="23.105" r="13.2"/>
<circle cx="153.984" cy="1488.448" r="13.2"/>
<circle cx="1130.879" cy="1226.689" r="13.2"/>
<circle cx="1846.016" cy="511.552" r="13.2"/>
<circle cx="869.121" cy="773.311" r="13.2"/>
<circle cx="284.863" cy="1000.000" r="13.2"/>
<circle cx="1000.000" cy="1715.137" r="13.2"/>
<circle cx="1715.137" cy="1000.000" r="13.2"/>
<circle cx="1000.000" cy="284.863" r="13.2"/>
<circle cx="23.105" cy="1000.000" r="13.2"/>
<circle cx="1000.000" cy="1261.758" r="13.2"/>
<circle cx="1976.895" cy="1000.000" r="13.2"/>
<circle cx="1000.000" cy="738.242" r="13.2"/>
<circle cx="380.673" cy="642.431" r="13.2"/>
<circle cx="642.431" cy="1619.327" r="13.2"/>
<circle cx="1619.327" cy="1357.568" r="13.2"/>
<circle cx="1357.568" cy="380.673" r="13.2"/>
<circle cx="153.984" cy="511.552" r="13.2"/>
<circle cx="869.121" cy="1226.689" r="13.2"/>
<circle cx="1846.016" cy="1488.448" r="13.2"/>
<circle cx="1130.879" cy="773.311" r="13.2"/>
<circle cx="511.552" cy="153.984" r="13.2"/>
<circle cx="773.311" cy="1130.879" r="13.2"/>
<circle cx="1488.448" cy="1846.016" r="13.2"/>
<circle cx="1226.689" cy="869.121" r="13.2"/>
</g>
<g style="stroke:#000000;stroke-width:1.3;fill:#00ffff">
<circle cx="837.184" cy="1282.005" r="13.2"/>
<circle cx="1075.563" cy="1043.626" r="13.2"/>
<circle cx="1162.816" cy="717.995" r="13.2"/>
<circle cx="924.437" cy="956.374" r="13.2"/>
<circle cx="793.558" cy="1119.189" r="13.2"/>
<circle cx="1000.000" cy="1325.632" r="13.2"/>
<circle cx="912.747" cy="1000.000" r="13.2"/>
<circle cx="1119.189" cy="1206.442" r="13.2"/>
<circle cx="1000.000" cy="912.747" r="13.2"/>
<circle cx="1043.626" cy="1075.563" r="13.2"/>
<circle cx="1206.442" cy="1119.189" r="13.2"/>
<circle cx="1119.189" cy="793.558" r="13.2"/>
<circle cx="1282.005" cy="837.184" r="13.2"/>
<circle cx="1325.632" cy="1000.000" r="13.2"/>
<circle cx="956.374" cy="1075.563" r="13.2"/>
<circle cx="1000.000" cy="1238.379" r="13.2"/>
<circle cx="1075.563" cy="956.374" r="13.2"/>
<circle cx="1162.816" cy="1282.005" r="13.2"/>
<circle cx="1238.379" cy="1000.000" r="13.2"/>
<circle cx="1282.005" cy="1162.816" r="13.2"/>
<circle cx="880.810" cy="793.558" r="13.2"/>
<circle cx="1087.253" cy="1000.000" r="13.2"/>
<circle cx="1000.000" cy="674.368" r="13.2"/>
<circle cx="1206.442" cy="880.810" r="13.2"/>
<circle cx="674.368" cy="1000.000" r="13.2"/>
<circle cx="717.995" cy="1162.816" r="13.2"/>
<circle cx="880.810" cy="1206.442" r="13.2"/>
<circle cx="793.558" cy="880.810" r="13.2"/>
<circle cx="956.374" cy="924.437" r="13.2"/>
<circle cx="1000.000" cy="1087.253" r="13.2"/>
<circle cx="717.995" cy="837.184" r="13.2"/>
<circle cx="761.621" cy="1000.000" r="13.2"/>
<circle cx="837.184" cy="717.995" r="13.2"/>
<circle cx="924.437" cy="1043.626" r="13.2"/>
<circle cx="1000.000" cy="761.621" r="13.2"/>
<circle cx="1043.626" cy="924.437" r="13.2"/>
</g>
</svg>